RedHatTextVF-Regular.ufo
<glyph name="dollar" format="2">
  <advance width="550"/>
  <unicode hex="0024"/>
  <outline>
    <contour>
      <point x="253" y="-67" type="line"/>
      <point x="301" y="-67" type="line"/>
      <point x="301" y="22" type="line"/>
      <point x="422" y="30"/>
      <point x="504" y="103"/>
      <point x="504" y="206" type="curve" smooth="yes"/>
      <point x="504" y="289"/>
      <point x="460" y="337"/>
      <point x="352" y="369" type="curve" smooth="yes"/>
      <point x="301" y="384" type="line"/>
      <point x="301" y="615" type="line"/>
      <point x="353" y="607"/>
      <point x="404" y="584"/>
      <point x="450" y="546" type="curve"/>
      <point x="487" y="598" type="line"/>
      <point x="432" y="642"/>
      <point x="368" y="670"/>
      <point x="301" y="677" type="curve"/>
      <point x="301" y="767" type="line"/>
      <point x="253" y="767" type="line"/>
      <point x="253" y="679" type="line"/>
      <point x="131" y="674"/>
      <point x="53" y="606"/>
      <point x="53" y="505" type="curve" smooth="yes"/>
      <point x="53" y="426"/>
      <point x="101" y="375"/>
      <point x="202" y="344" type="curve" smooth="yes"/>
      <point x="253" y="330" type="line"/>
      <point x="253" y="83" type="line"/>
      <point x="194" y="89"/>
      <point x="136" y="114"/>
      <point x="81" y="155" type="curve"/>
      <point x="45" y="101" type="line"/>
      <point x="104" y="54"/>
      <point x="178" y="27"/>
      <point x="253" y="22" type="curve"/>
    </contour>
    <contour>
      <point x="253" y="398" type="line"/>
      <point x="225" y="406" type="line" smooth="yes"/>
      <point x="151" y="428"/>
      <point x="121" y="459"/>
      <point x="121" y="510" type="curve" smooth="yes"/>
      <point x="121" y="573"/>
      <point x="172" y="615"/>
      <point x="253" y="618" type="curve"/>
    </contour>
    <contour>
      <point x="301" y="83" type="curve"/>
      <point x="301" y="316" type="line"/>
      <point x="328" y="307" type="line" smooth="yes"/>
      <point x="408" y="279"/>
      <point x="435" y="252"/>
      <point x="435" y="200" type="curve" smooth="yes"/>
      <point x="435" y="135"/>
      <point x="382" y="89"/>
    </contour>
  </outline>
</glyph>
<glyph name="ampersand" format="2">
  <advance width="669"/>
  <unicode hex="0026"/>
  <outline>
    <contour>
      <point x="265" y="-11" type="curve" smooth="yes"/>
      <point x="353" y="-11"/>
      <point x="431" y="22"/>
      <point x="489" y="84" type="curve"/>
      <point x="530" y="49"/>
      <point x="571" y="16"/>
      <point x="609" y="-13" type="curve"/>
      <point x="654" y="40" type="line"/>
      <point x="616" y="69"/>
      <point x="573" y="104"/>
      <point x="530" y="141" type="curve"/>
      <point x="571" y="203"/>
      <point x="599" y="277"/>
      <point x="616" y="363" type="curve"/>
      <point x="548" y="374" type="line"/>
      <point x="535" y="304"/>
      <point x="513" y="239"/>
      <point x="480" y="186" type="curve"/>
      <point x="412" y="248"/>
      <point x="345" y="314"/>
      <point x="290" y="375" type="curve"/>
      <point x="340" y="405" type="line" smooth="yes"/>
      <point x="417" y="450"/>
      <point x="452" y="501"/>
      <point x="452" y="566" type="curve" smooth="yes"/>
      <point x="452" y="652"/>
      <point x="386" y="711"/>
      <point x="294" y="711" type="curve" smooth="yes"/>
      <point x="197" y="711"/>
      <point x="125" y="641"/>
      <point x="125" y="546" type="curve" smooth="yes"/>
      <point x="125" y="493"/>
      <point x="142" y="448"/>
      <point x="189" y="389" type="curve"/>
      <point x="73" y="326"/>
      <point x="34" y="271"/>
      <point x="34" y="188" type="curve" smooth="yes"/>
      <point x="34" y="68"/>
      <point x="126" y="-11"/>
    </contour>
    <contour>
      <point x="251" y="421" type="line"/>
      <point x="209" y="472"/>
      <point x="195" y="506"/>
      <point x="195" y="547" type="curve" smooth="yes"/>
      <point x="195" y="609"/>
      <point x="236" y="651"/>
      <point x="292" y="651" type="curve" smooth="yes"/>
      <point x="342" y="651"/>
      <point x="382" y="614"/>
      <point x="382" y="564" type="curve" smooth="yes"/>
      <point x="382" y="519"/>
      <point x="357" y="483"/>
      <point x="308" y="454" type="curve" smooth="yes"/>
    </contour>
    <contour>
      <point x="268" y="52" type="curve" smooth="yes"/>
      <point x="170" y="52"/>
      <point x="104" y="106"/>
      <point x="104" y="190" type="curve" smooth="yes"/>
      <point x="104" y="254"/>
      <point x="135" y="290"/>
      <point x="228" y="341" type="curve"/>
      <point x="287" y="273"/>
      <point x="363" y="198"/>
      <point x="440" y="128" type="curve"/>
      <point x="394" y="78"/>
      <point x="335" y="52"/>
    </contour>
  </outline>
</glyph>
<glyph name="quotesingle" format="2">
  <advance width="214"/>
  <unicode hex="0027"/>
  <outline>
    <contour>
      <point x="81" y="530" type="line"/>
      <point x="133" y="530" type="line"/>
      <point x="143" y="750" type="line"/>
      <point x="70" y="750" type="line"/>
    </contour>
  </outline>
</glyph>
<glyph name="parenleft" format="2">
  <advance width="401"/>
  <unicode hex="0028"/>
  <outline>
    <contour>
      <point x="312" y="-219" type="curve"/>
      <point x="350" y="-169" type="line"/>
      <point x="219" y="-88"/>
      <point x="145" y="62"/>
      <point x="145" y="246" type="curve" smooth="yes"/>
      <point x="145" y="430"/>
      <point x="219" y="580"/>
      <point x="350" y="661" type="curve"/>
      <point x="312" y="712" type="line"/>
      <point x="159" y="616"/>
      <point x="75" y="452"/>
      <point x="75" y="246" type="curve" smooth="yes"/>
      <point x="75" y="41"/>
      <point x="159" y="-124"/>
    </contour>
  </outline>
</glyph>
<glyph name="asterisk" format="2">
  <advance width="455"/>
  <unicode hex="002A"/>
  <outline>
    <contour>
      <point x="201" y="341" type="line"/>
      <point x="253" y="341" type="line"/>
      <point x="251" y="479" type="line"/>
      <point x="363" y="406" type="line"/>
      <point x="393" y="451" type="line"/>
      <point x="274" y="524" type="line"/>
      <point x="389" y="596" type="line"/>
      <point x="359" y="640" type="line"/>
      <point x="252" y="570" type="line"/>
      <point x="253" y="700" type="line"/>
      <point x="201" y="700" type="line"/>
      <point x="202" y="569" type="line"/>
      <point x="94" y="640" type="line"/>
      <point x="66" y="596" type="line"/>
      <point x="180" y="524" type="line"/>
      <point x="62" y="451" type="line"/>
      <point x="91" y="406" type="line"/>
      <point x="203" y="479" type="line"/>
    </contour>
  </outline>
</glyph>
<glyph name="comma" format="2">
  <advance width="250"/>
  <unicode hex="002C"/>
  <outline>
    <contour>
      <point x="50" y="-157" type="line"/>
      <point x="107" y="-157" type="line"/>
      <point x="188" y="74" type="line"/>
      <point x="110" y="74" type="line"/>
    </contour>
  </outline>
</glyph>
<glyph name="nine" format="2">
  <advance width="619"/>
  <unicode hex="0039"/>
  <outline>
    <contour>
      <point x="288" y="711" type="curve" smooth="yes"/>
      <point x="152" y="711"/>
      <point x="51" y="613"/>
      <point x="51" y="480" type="curve" smooth="yes"/>
      <point x="51" y="354"/>
      <point x="149" y="262"/>
      <point x="285" y="262" type="curve" smooth="yes"/>
      <point x="362" y="262"/>
      <point x="438" y="301"/>
      <point x="490" y="368" type="curve"/>
      <point x="487" y="173"/>
      <point x="398" y="55"/>
      <point x="254" y="55" type="curve" smooth="yes"/>
      <point x="208" y="55"/>
      <point x="161" y="69"/>
      <point x="120" y="93" type="curve"/>
      <point x="84" y="37" type="line"/>
      <point x="129" y="7"/>
      <point x="190" y="-10"/>
      <point x="248" y="-10" type="curve" smooth="yes"/>
      <point x="437" y="-10"/>
      <point x="562" y="143"/>
      <point x="562" y="375" type="curve" smooth="yes"/>
      <point x="562" y="572"/>
      <point x="449" y="711"/>
    </contour>
    <contour>
      <point x="295" y="321" type="curve" smooth="yes"/>
      <point x="194" y="321"/>
      <point x="123" y="388"/>
      <point x="123" y="482" type="curve" smooth="yes"/>
      <point x="123" y="577"/>
      <point x="194" y="648"/>
      <point x="289" y="648" type="curve" smooth="yes"/>
      <point x="396" y="648"/>
      <point x="473" y="559"/>
      <point x="488" y="424" type="curve"/>
      <point x="439" y="360"/>
      <point x="368" y="321"/>
    </contour>
  </outline>
</glyph>
<glyph name="question" format="2">
  <advance width="512"/>
  <unicode hex="003F"/>
  <outline>
    <contour>
      <point x="193" y="207" type="curve"/>
      <point x="256" y="207" type="line"/>
      <point x="252" y="267"/>
      <point x="269" y="305"/>
      <point x="315" y="339" type="curve" smooth="yes"/>
      <point x="347" y="363" type="line" smooth="yes"/>
      <point x="432" y="424"/>
      <point x="459" y="466"/>
      <point x="459" y="535" type="curve" smooth="yes"/>
      <point x="459" y="634"/>
      <point x="371" y="708"/>
      <point x="254" y="708" type="curve" smooth="yes"/>
      <point x="166" y="708"/>
      <point x="88" y="666"/>
      <point x="34" y="590" type="curve"/>
      <point x="90" y="552" type="line"/>
      <point x="133" y="611"/>
      <point x="188" y="642"/>
      <point x="251" y="642" type="curve" smooth="yes"/>
      <point x="328" y="642"/>
      <point x="388" y="595"/>
      <point x="388" y="534" type="curve" smooth="yes"/>
      <point x="388" y="489"/>
      <point x="368" y="458"/>
      <point x="313" y="416" type="curve" smooth="yes"/>
      <point x="271" y="385" type="line" smooth="yes"/>
      <point x="209" y="339"/>
      <point x="188" y="290"/>
    </contour>
    <contour>
      <point x="226" y="-8" type="curve" smooth="yes"/>
      <point x="255" y="-8"/>
      <point x="278" y="16"/>
      <point x="278" y="45" type="curve" smooth="yes"/>
      <point x="278" y="75"/>
      <point x="255" y="98"/>
      <point x="226" y="98" type="curve" smooth="yes"/>
      <point x="196" y="98"/>
      <point x="173" y="75"/>
      <point x="173" y="45" type="curve" smooth="yes"/>
      <point x="173" y="16"/>
      <point x="196" y="-8"/>
    </contour>
  </outline>
</glyph>
<glyph name="at" format="2">
  <advance width="767"/>
  <unicode hex="0040"/>
  <outline>
    <contour>
      <point x="398" y="-144" type="curve" smooth="yes"/>
      <point x="463" y="-144"/>
      <point x="525" y="-128"/>
      <point x="579" y="-99" type="curve"/>
      <point x="562" y="-58" type="line"/>
      <point x="514" y="-85"/>
      <point x="459" y="-99"/>
      <point x="401" y="-99" type="curve" smooth="yes"/>
      <point x="228" y="-99"/>
      <point x="103" y="31"/>
      <point x="103" y="209" type="curve" smooth="yes"/>
      <point x="103" y="390"/>
      <point x="229" y="532"/>
      <point x="392" y="532" type="curve" smooth="yes"/>
      <point x="548" y="532"/>
      <point x="665" y="419"/>
      <point x="665" y="267" type="curve" smooth="yes"/>
      <point x="665" y="172"/>
      <point x="615" y="99"/>
      <point x="549" y="99" type="curve" smooth="yes"/>
      <point x="506" y="99"/>
      <point x="486" y="126"/>
      <point x="496" y="174" type="curve" smooth="yes"/>
      <point x="533" y="366" type="line"/>
      <point x="478" y="366" type="line"/>
      <point x="473" y="341" type="line"/>
      <point x="449" y="365"/>
      <point x="415" y="379"/>
      <point x="378" y="379" type="curve" smooth="yes"/>
      <point x="289" y="379"/>
      <point x="216" y="300"/>
      <point x="216" y="202" type="curve" smooth="yes"/>
      <point x="216" y="116"/>
      <point x="275" y="51"/>
      <point x="353" y="51" type="curve" smooth="yes"/>
      <point x="387" y="51"/>
      <point x="423" y="67"/>
      <point x="454" y="96" type="curve"/>
      <point x="470" y="70"/>
      <point x="501" y="55"/>
      <point x="543" y="55" type="curve" smooth="yes"/>
      <point x="639" y="55"/>
      <point x="711" y="146"/>
      <point x="711" y="269" type="curve" smooth="yes"/>
      <point x="711" y="444"/>
      <point x="574" y="576"/>
      <point x="394" y="576" type="curve" smooth="yes"/>
      <point x="201" y="576"/>
      <point x="56" y="418"/>
      <point x="56" y="207" type="curve" smooth="yes"/>
      <point x="56" y="6"/>
      <point x="202" y="-144"/>
    </contour>
    <contour>
      <point x="365" y="98" type="curve" smooth="yes"/>
      <point x="309" y="98"/>
      <point x="270" y="142"/>
      <point x="270" y="206" type="curve" smooth="yes"/>
      <point x="270" y="274"/>
      <point x="318" y="331"/>
      <point x="377" y="331" type="curve" smooth="yes"/>
      <point x="413" y="331"/>
      <point x="445" y="314"/>
      <point x="463" y="285" type="curve"/>
      <point x="443" y="179" type="line" smooth="yes"/>
      <point x="440" y="162"/>
      <point x="439" y="147"/>
      <point x="441" y="133" type="curve"/>
      <point x="419" y="110"/>
      <point x="393" y="98"/>
    </contour>
  </outline>
</glyph>
<glyph name="B" format="2">
  <advance width="669"/>
  <unicode hex="0042"/>
  <outline>
    <contour>
      <point x="89" y="0" type="line"/>
      <point x="383" y="0" type="line" smooth="yes"/>
      <point x="520" y="0"/>
      <point x="610" y="77"/>
      <point x="610" y="194" type="curve" smooth="yes"/>
      <point x="610" y="280"/>
      <point x="552" y="343"/>
      <point x="459" y="364" type="curve"/>
      <point x="535" y="387"/>
      <point x="583" y="445"/>
      <point x="583" y="522" type="curve" smooth="yes"/>
      <point x="583" y="630"/>
      <point x="500" y="700"/>
      <point x="372" y="700" type="curve" smooth="yes"/>
      <point x="89" y="700" type="line"/>
    </contour>
    <contour>
      <point x="166" y="394" type="line"/>
      <point x="166" y="634" type="line"/>
      <point x="366" y="634" type="line" smooth="yes"/>
      <point x="451" y="634"/>
      <point x="506" y="587"/>
      <point x="506" y="514" type="curve" smooth="yes"/>
      <point x="506" y="441"/>
      <point x="451" y="394"/>
      <point x="366" y="394" type="curve" smooth="yes"/>
    </contour>
    <contour>
      <point x="166" y="66" type="line"/>
      <point x="166" y="331" type="line"/>
      <point x="375" y="331" type="line" smooth="yes"/>
      <point x="471" y="331"/>
      <point x="532" y="279"/>
      <point x="532" y="199" type="curve" smooth="yes"/>
      <point x="532" y="119"/>
      <point x="470" y="66"/>
      <point x="375" y="66" type="curve" smooth="yes"/>
    </contour>
  </outline>
</glyph>
<glyph name="C" format="2">
  <advance width="726"/>
  <unicode hex="0043"/>
  <anchor x="407" y="700" name="top"/>
  <anchor x="411" y="0" name="bottom"/>
  <outline>
    <contour>
      <point x="412" y="-11" type="curve" smooth="yes"/>
      <point x="515" y="-11"/>
      <point x="610" y="30"/>
      <point x="676" y="104" type="curve"/>
      <point x="625" y="157" type="line"/>
      <point x="573" y="95"/>
      <point x="493" y="59"/>
      <point x="412" y="59" type="curve" smooth="yes"/>
      <point x="254" y="59"/>
      <point x="134" y="186"/>
      <point x="134" y="350" type="curve" smooth="yes"/>
      <point x="134" y="514"/>
      <point x="254" y="641"/>
      <point x="412" y="641" type="curve" smooth="yes"/>
      <point x="493" y="641"/>
      <point x="573" y="605"/>
      <point x="625" y="543" type="curve"/>
      <point x="676" y="596" type="line"/>
      <point x="610" y="670"/>
      <point x="515" y="711"/>
      <point x="412" y="711" type="curve" smooth="yes"/>
      <point x="212" y="711"/>
      <point x="56" y="552"/>
      <point x="56" y="350" type="curve" smooth="yes"/>
      <point x="56" y="148"/>
      <point x="212" y="-11"/>
    </contour>
  </outline>
</glyph>
<glyph name="H" format="2">
  <advance width="732"/>
  <unicode hex="0048"/>
  <anchor x="366" y="700" name="top"/>
  <outline>
    <contour>
      <point x="88" y="0" type="line"/>
      <point x="165" y="0" type="line"/>
      <point x="165" y="318" type="line"/>
      <point x="567" y="318" type="line"/>
      <point x="567" y="0" type="line"/>
      <point x="644" y="0" type="line"/>
      <point x="644" y="700" type="line"/>
      <point x="567" y="700" type="line"/>
      <point x="567" y="387" type="line"/>
      <point x="165" y="387" type="line"/>
      <point x="165" y="700" type="line"/>
      <point x="88" y="700" type="line"/>
    </contour>
  </outline>
</glyph>
<glyph name="K" format="2">
  <advance width="610"/>
  <unicode hex="004B"/>
  <anchor x="330" y="0" name="bottom"/>
  <outline>
    <contour>
      <point x="89" y="0" type="line"/>
      <point x="166" y="0" type="line"/>
      <point x="166" y="335" type="line"/>
      <point x="507" y="0" type="line"/>
      <point x="612" y="0" type="line"/>
      <point x="247" y="356" type="line"/>
      <point x="604" y="700" type="line"/>
      <point x="506" y="700" type="line"/>
      <point x="166" y="368" type="line"/>
      <point x="166" y="700" type="line"/>
      <point x="89" y="700" type="line"/>
    </contour>
  </outline>
</glyph>
<glyph name="L" format="2">
  <advance width="607"/>
  <unicode hex="004C"/>
  <anchor x="118" y="700" name="top"/>
  <anchor x="326" y="0" name="bottom"/>
  <outline>
    <contour>
      <point x="89" y="0" type="line"/>
      <point x="561" y="0" type="line"/>
      <point x="561" y="68" type="line"/>
      <point x="166" y="68" type="line"/>
      <point x="166" y="700" type="line"/>
      <point x="89" y="700" type="line"/>
    </contour>
  </outline>
</glyph>
<glyph name="M" format="2">
  <advance width="860"/>
  <unicode hex="004D"/>
  <outline>
    <contour>
      <point x="89" y="0" type="line"/>
      <point x="161" y="0" type="line"/>
      <point x="161" y="611" type="line"/>
      <point x="430" y="50" type="line"/>
      <point x="698" y="609" type="line"/>
      <point x="698" y="0" type="line"/>
      <point x="771" y="0" type="line"/>
      <point x="771" y="700" type="line"/>
      <point x="664" y="700" type="line"/>
      <point x="430" y="202" type="line"/>
      <point x="196" y="700" type="line"/>
      <point x="89" y="700" type="line"/>
    </contour>
  </outline>
</glyph>
<glyph name="O" format="2">
  <advance width="810"/>
  <unicode hex="004F"/>
  <anchor x="404" y="700" name="top"/>
  <outline>
    <contour>
      <point x="405" y="-11" type="curve" smooth="yes"/>
      <point x="599" y="-11"/>
      <point x="753" y="148"/>
      <point x="753" y="350" type="curve" smooth="yes"/>
      <point x="753" y="552"/>
      <point x="599" y="711"/>
      <point x="405" y="711" type="curve" smooth="yes"/>
      <point x="211" y="711"/>
      <point x="57" y="552"/>
      <point x="57" y="350" type="curve" smooth="yes"/>
      <point x="57" y="148"/>
      <point x="211" y="-11"/>
    </contour>
    <contour>
      <point x="405" y="59" type="curve" smooth="yes"/>
      <point x="253" y="59"/>
      <point x="135" y="186"/>
      <point x="135" y="350" type="curve" smooth="yes"/>
      <point x="135" y="514"/>
      <point x="253" y="641"/>
      <point x="405" y="641" type="curve" smooth="yes"/>
      <point x="557" y="641"/>
      <point x="675" y="514"/>
      <point x="675" y="350" type="curve" smooth="yes"/>
      <point x="675" y="186"/>
      <point x="557" y="59"/>
    </contour>
  </outline>
</glyph>
<glyph name="Q" format="2">
  <advance width="810"/>
  <unicode hex="0051"/>
  <outline>
    <contour>
      <point x="643" y="-24" type="line"/>
      <point x="722" y="-13" type="line"/>
      <point x="642" y="84" type="line"/>
      <point x="710" y="149"/>
      <point x="753" y="244"/>
      <point x="753" y="350" type="curve" smooth="yes"/>
      <point x="753" y="552"/>
      <point x="599" y="711"/>
      <point x="405" y="711" type="curve" smooth="yes"/>
      <point x="211" y="711"/>
      <point x="57" y="552"/>
      <point x="57" y="350" type="curve" smooth="yes"/>
      <point x="57" y="148"/>
      <point x="211" y="-11"/>
      <point x="405" y="-11" type="curve" smooth="yes"/>
      <point x="473" y="-11"/>
      <point x="535" y="8"/>
      <point x="588" y="42" type="curve"/>
    </contour>
    <contour>
      <point x="405" y="59" type="curve" smooth="yes"/>
      <point x="253" y="59"/>
      <point x="135" y="186"/>
      <point x="135" y="350" type="curve" smooth="yes"/>
      <point x="135" y="514"/>
      <point x="253" y="641"/>
      <point x="405" y="641" type="curve" smooth="yes"/>
      <point x="557" y="641"/>
      <point x="675" y="514"/>
      <point x="675" y="350" type="curve" smooth="yes"/>
      <point x="675" y="266"/>
      <point x="644" y="193"/>
      <point x="594" y="140" type="curve"/>
      <point x="519" y="230" type="line"/>
      <point x="440" y="218" type="line"/>
      <point x="542" y="97" type="line"/>
      <point x="502" y="73"/>
      <point x="455" y="59"/>
    </contour>
  </outline>
</glyph>
<glyph name="U" format="2">
  <advance width="712"/>
  <unicode hex="0055"/>
  <anchor x="356" y="700" name="top"/>
  <anchor x="442" y="0" name="bottom"/>
  <outline>
    <contour>
      <point x="356" y="-11" type="curve" smooth="yes"/>
      <point x="529" y="-11"/>
      <point x="637" y="107"/>
      <point x="637" y="296" type="curve" smooth="yes"/>
      <point x="637" y="700" type="line"/>
      <point x="560" y="700" type="line"/>
      <point x="560" y="296" type="line" smooth="yes"/>
      <point x="560" y="152"/>
      <point x="480" y="59"/>
      <point x="356" y="59" type="curve" smooth="yes"/>
      <point x="232" y="59"/>
      <point x="152" y="152"/>
      <point x="152" y="296" type="curve" smooth="yes"/>
      <point x="152" y="700" type="line"/>
      <point x="75" y="700" type="line"/>
      <point x="75" y="296" type="line" smooth="yes"/>
      <point x="75" y="107"/>
      <point x="183" y="-11"/>
    </contour>
  </outline>
</glyph>
<glyph name="W" format="2">
  <advance width="897"/>
  <unicode hex="0057"/>
  <guideline x="449" y="700" angle="0.0" color="0.999,0.001,0.001,0.999" identifier="xVZBJ1giCn"/>
  <anchor x="450" y="700" name="top"/>
  <outline>
    <contour>
      <point x="193" y="0" type="line"/>
      <point x="271" y="0" type="line"/>
      <point x="449" y="594" type="line"/>
      <point x="626" y="0" type="line"/>
      <point x="704" y="0" type="line"/>
      <point x="855" y="700" type="line"/>
      <point x="780" y="700" type="line"/>
      <point x="660" y="123" type="line"/>
      <point x="487" y="700" type="line"/>
      <point x="412" y="700" type="line"/>
      <point x="239" y="121" type="line"/>
      <point x="120" y="700" type="line"/>
      <point x="42" y="700" type="line"/>
    </contour>
  </outline>
</glyph>
<glyph name="X" format="2">
  <advance width="654"/>
  <unicode hex="0058"/>
  <outline>
    <contour>
      <point x="11" y="0" type="line"/>
      <point x="101" y="0" type="line"/>
      <point x="326" y="305" type="line"/>
      <point x="550" y="0" type="line"/>
      <point x="643" y="0" type="line"/>
      <point x="373" y="361" type="line"/>
      <point x="626" y="700" type="line"/>
      <point x="536" y="700" type="line"/>
      <point x="329" y="419" type="line"/>
      <point x="120" y="700" type="line"/>
      <point x="28" y="700" type="line"/>
      <point x="281" y="362" type="line"/>
    </contour>
  </outline>
</glyph>
<glyph name="Z" format="2">
  <advance width="605"/>
  <unicode hex="005A"/>
  <anchor x="305" y="700" name="top"/>
  <outline>
    <contour>
      <point x="37" y="0" type="line"/>
      <point x="572" y="0" type="line"/>
      <point x="572" y="67" type="line"/>
      <point x="133" y="65" type="line"/>
      <point x="564" y="646" type="line"/>
      <point x="564" y="700" type="line"/>
      <point x="40" y="700" type="line"/>
      <point x="40" y="633" type="line"/>
      <point x="467" y="635" type="line"/>
      <point x="37" y="54" type="line"/>
    </contour>
  </outline>
</glyph>
<glyph name="backslash" format="2">
  <advance width="471"/>
  <unicode hex="005C"/>
  <outline>
    <contour>
      <point x="443" y="-209" type="line"/>
      <point x="519" y="-209" type="line"/>
      <point x="119" y="700" type="line"/>
      <point x="43" y="700" type="line"/>
    </contour>
  </outline>
</glyph>
<glyph name="underscore" format="2">
  <advance width="457"/>
  <unicode hex="005F"/>
  <outline>
    <contour>
      <point x="-1" y="-137" type="line"/>
      <point x="458" y="-137" type="line"/>
      <point x="458" y="-80" type="line"/>
      <point x="-1" y="-80" type="line"/>
    </contour>
  </outline>
</glyph>
<glyph name="b" format="2">
  <advance width="583"/>
  <unicode hex="0062"/>
  <outline>
    <contour>
      <point x="75" y="0" type="line"/>
      <point x="147" y="0" type="line"/>
      <point x="147" y="64" type="line"/>
      <point x="186" y="18"/>
      <point x="240" y="-7"/>
      <point x="301" y="-7" type="curve" smooth="yes"/>
      <point x="430" y="-7"/>
      <point x="530" y="103"/>
      <point x="530" y="244" type="curve" smooth="yes"/>
      <point x="530" y="384"/>
      <point x="432" y="494"/>
      <point x="305" y="494" type="curve" smooth="yes"/>
      <point x="240" y="494"/>
      <point x="185" y="467"/>
      <point x="148" y="421" type="curve"/>
      <point x="148" y="730" type="line"/>
      <point x="75" y="715" type="line"/>
    </contour>
    <contour>
      <point x="287" y="56" type="curve" smooth="yes"/>
      <point x="231" y="56"/>
      <point x="180" y="81"/>
      <point x="148" y="124" type="curve"/>
      <point x="148" y="363" type="line"/>
      <point x="179" y="406"/>
      <point x="229" y="430"/>
      <point x="287" y="430" type="curve" smooth="yes"/>
      <point x="385" y="430"/>
      <point x="458" y="350"/>
      <point x="458" y="243" type="curve" smooth="yes"/>
      <point x="458" y="136"/>
      <point x="385" y="56"/>
    </contour>
  </outline>
</glyph>
<glyph name="c" format="2">
  <advance width="509"/>
  <unicode hex="0063"/>
  <anchor x="295" y="488" name="top"/>
  <anchor x="296" y="7" name="bottom"/>
  <outline>
    <contour>
      <point x="294" y="-8" type="curve" smooth="yes"/>
      <point x="366" y="-8"/>
      <point x="434" y="20"/>
      <point x="482" y="68" type="curve"/>
      <point x="435" y="119" type="line"/>
      <point x="400" y="81"/>
      <point x="348" y="58"/>
      <point x="297" y="58" type="curve" smooth="yes"/>
      <point x="201" y="58"/>
      <point x="126" y="140"/>
      <point x="126" y="244" type="curve" smooth="yes"/>
      <point x="126" y="348"/>
      <point x="201" y="430"/>
      <point x="297" y="430" type="curve" smooth="yes"/>
      <point x="348" y="430"/>
      <point x="400" y="407"/>
      <point x="435" y="369" type="curve"/>
      <point x="482" y="420" type="line"/>
      <point x="434" y="468"/>
      <point x="366" y="496"/>
      <point x="294" y="496" type="curve" smooth="yes"/>
      <point x="158" y="496"/>
      <point x="53" y="385"/>
      <point x="53" y="244" type="curve" smooth="yes"/>
      <point x="53" y="103"/>
      <point x="158" y="-8"/>
    </contour>
  </outline>
</glyph>
<glyph name="d" format="2">
  <advance width="582"/>
  <unicode hex="0064"/>
  <outline>
    <contour>
      <point x="278" y="-7" type="curve" smooth="yes"/>
      <point x="342" y="-7"/>
      <point x="397" y="18"/>
      <point x="434" y="65" type="curve"/>
      <point x="434" y="0" type="line"/>
      <point x="507" y="0" type="line"/>
      <point x="507" y="737" type="line"/>
      <point x="434" y="722" type="line"/>
      <point x="434" y="426" type="line"/>
      <point x="395" y="470"/>
      <point x="342" y="494"/>
      <point x="282" y="494" type="curve" smooth="yes"/>
      <point x="153" y="494"/>
      <point x="53" y="384"/>
      <point x="53" y="243" type="curve" smooth="yes"/>
      <point x="53" y="103"/>
      <point x="151" y="-7"/>
    </contour>
    <contour>
      <point x="296" y="57" type="curve" smooth="yes"/>
      <point x="198" y="57"/>
      <point x="125" y="137"/>
      <point x="125" y="244" type="curve" smooth="yes"/>
      <point x="125" y="351"/>
      <point x="198" y="430"/>
      <point x="296" y="430" type="curve" smooth="yes"/>
      <point x="351" y="430"/>
      <point x="402" y="405"/>
      <point x="434" y="364" type="curve"/>
      <point x="434" y="122" type="line"/>
      <point x="403" y="80"/>
      <point x="353" y="57"/>
    </contour>
  </outline>
</glyph>
<glyph name="f" format="2">
  <advance width="370"/>
  <unicode hex="0066"/>
  <outline>
    <contour>
      <point x="137" y="0" type="line"/>
      <point x="210" y="0" type="line"/>
      <point x="210" y="428" type="line"/>
      <point x="349" y="428" type="line"/>
      <point x="349" y="488" type="line"/>
      <point x="210" y="488" type="line"/>
      <point x="210" y="589" type="line" smooth="yes"/>
      <point x="210" y="647"/>
      <point x="234" y="674"/>
      <point x="290" y="674" type="curve" smooth="yes"/>
      <point x="312" y="674"/>
      <point x="327" y="671"/>
      <point x="349" y="665" type="curve"/>
      <point x="349" y="731" type="line"/>
      <point x="331" y="737"/>
      <point x="310" y="740"/>
      <point x="283" y="740" type="curve" smooth="yes"/>
      <point x="189" y="740"/>
      <point x="137" y="686"/>
      <point x="137" y="590" type="curve" smooth="yes"/>
      <point x="137" y="488" type="line"/>
      <point x="28" y="488" type="line"/>
      <point x="28" y="428" type="line"/>
      <point x="137" y="428" type="line"/>
    </contour>
  </outline>
</glyph>
<glyph name="g" format="2">
  <advance width="582"/>
  <unicode hex="0067"/>
  <anchor x="286" y="488" name="top"/>
  <outline>
    <contour>
      <point x="301" y="-219" type="curve" smooth="yes"/>
      <point x="434" y="-219"/>
      <point x="507" y="-152"/>
      <point x="507" y="-31" type="curve" smooth="yes"/>
      <point x="507" y="488" type="line"/>
      <point x="435" y="488" type="line"/>
      <point x="435" y="425" type="line"/>
      <point x="396" y="470"/>
      <point x="343" y="494"/>
      <point x="282" y="494" type="curve"/>
      <point x="153" y="494"/>
      <point x="53" y="384"/>
      <point x="53" y="244" type="curve" smooth="yes"/>
      <point x="53" y="104"/>
      <point x="151" y="-6"/>
      <point x="278" y="-6" type="curve"/>
      <point x="342" y="-6"/>
      <point x="397" y="19"/>
      <point x="434" y="66" type="curve"/>
      <point x="434" y="-32" type="line" smooth="yes"/>
      <point x="434" y="-114"/>
      <point x="387" y="-157"/>
      <point x="298" y="-157" type="curve" smooth="yes"/>
      <point x="248" y="-157"/>
      <point x="202" y="-143"/>
      <point x="142" y="-112" type="curve"/>
      <point x="111" y="-168" type="line"/>
      <point x="167" y="-200"/>
      <point x="235" y="-219"/>
    </contour>
    <contour>
      <point x="296" y="57" type="curve"/>
      <point x="198" y="57"/>
      <point x="125" y="137"/>
      <point x="125" y="244" type="curve" smooth="yes"/>
      <point x="125" y="351"/>
      <point x="198" y="430"/>
      <point x="296" y="430" type="curve"/>
      <point x="351" y="430"/>
      <point x="402" y="405"/>
      <point x="434" y="364" type="curve"/>
      <point x="434" y="123" type="line"/>
      <point x="403" y="81"/>
      <point x="353" y="57"/>
    </contour>
  </outline>
</glyph>
<glyph name="h" format="2">
  <advance width="552"/>
  <unicode hex="0068"/>
  <anchor x="111" y="700" name="top"/>
  <outline>
    <contour>
      <point x="75" y="0" type="line"/>
      <point x="148" y="0" type="line"/>
      <point x="148" y="360" type="line"/>
      <point x="177" y="409"/>
      <point x="222" y="435"/>
      <point x="276" y="435" type="curve" smooth="yes"/>
      <point x="356" y="435"/>
      <point x="407" y="381"/>
      <point x="407" y="295" type="curve" smooth="yes"/>
      <point x="407" y="0" type="line"/>
      <point x="480" y="0" type="line"/>
      <point x="480" y="316" type="line" smooth="yes"/>
      <point x="480" y="423"/>
      <point x="408" y="496"/>
      <point x="303" y="496" type="curve" smooth="yes"/>
      <point x="238" y="496"/>
      <point x="185" y="467"/>
      <point x="148" y="409" type="curve"/>
      <point x="148" y="737" type="line"/>
      <point x="75" y="722" type="line"/>
    </contour>
  </outline>
</glyph>
<glyph name="j" format="2">
  <advance width="223"/>
  <unicode hex="006A"/>
  <outline>
    <contour>
      <point x="112" y="609" type="curve" smooth="yes"/>
      <point x="141" y="609"/>
      <point x="165" y="633"/>
      <point x="165" y="661" type="curve" smooth="yes"/>
      <point x="165" y="689"/>
      <point x="141" y="713"/>
      <point x="112" y="713" type="curve" smooth="yes"/>
      <point x="83" y="713"/>
      <point x="59" y="689"/>
      <point x="59" y="661" type="curve" smooth="yes"/>
      <point x="59" y="633"/>
      <point x="83" y="609"/>
    </contour>
    <contour>
      <point x="25" y="-219" type="curve" smooth="yes"/>
      <point x="105" y="-219"/>
      <point x="148" y="-173"/>
      <point x="148" y="-94" type="curve" smooth="yes"/>
      <point x="148" y="488" type="line"/>
      <point x="75" y="488" type="line"/>
      <point x="75" y="-90" type="line" smooth="yes"/>
      <point x="75" y="-135"/>
      <point x="58" y="-154"/>
      <point x="16" y="-154" type="curve" smooth="yes"/>
      <point x="2" y="-154"/>
      <point x="-8" y="-153"/>
      <point x="-20" y="-150" type="curve"/>
      <point x="-20" y="-213" type="line"/>
      <point x="-7" y="-216"/>
      <point x="9" y="-219"/>
    </contour>
  </outline>
</glyph>
<glyph name="l" format="2">
  <advance width="223"/>
  <unicode hex="006C"/>
  <anchor x="111" y="700" name="top"/>
  <anchor x="111" y="0" name="bottom"/>
  <outline>
    <contour>
      <point x="75" y="0" type="line"/>
      <point x="148" y="0" type="line"/>
      <point x="148" y="737" type="line"/>
      <point x="75" y="722" type="line"/>
    </contour>
  </outline>
</glyph>
<glyph name="m" format="2">
  <advance width="845"/>
  <unicode hex="006D"/>
  <outline>
    <contour>
      <point x="75" y="0" type="line"/>
      <point x="148" y="0" type="line"/>
      <point x="148" y="363" type="line"/>
      <point x="177" y="411"/>
      <point x="217" y="435"/>
      <point x="267" y="435" type="curve" smooth="yes"/>
      <point x="341" y="435"/>
      <point x="388" y="382"/>
      <point x="388" y="297" type="curve" smooth="yes"/>
      <point x="388" y="0" type="line"/>
      <point x="461" y="0" type="line"/>
      <point x="461" y="315" type="line" smooth="yes"/>
      <point x="461" y="330"/>
      <point x="460" y="344"/>
      <point x="457" y="358" type="curve"/>
      <point x="487" y="410"/>
      <point x="528" y="435"/>
      <point x="579" y="435" type="curve" smooth="yes"/>
      <point x="653" y="435"/>
      <point x="699" y="382"/>
      <point x="699" y="297" type="curve" smooth="yes"/>
      <point x="699" y="0" type="line"/>
      <point x="772" y="0" type="line"/>
      <point x="772" y="315" type="line" smooth="yes"/>
      <point x="772" y="422"/>
      <point x="704" y="496"/>
      <point x="606" y="496" type="curve" smooth="yes"/>
      <point x="535" y="496"/>
      <point x="481" y="464"/>
      <point x="443" y="401" type="curve"/>
      <point x="416" y="459"/>
      <point x="362" y="496"/>
      <point x="293" y="496" type="curve" smooth="yes"/>
      <point x="233" y="496"/>
      <point x="185" y="468"/>
      <point x="148" y="412" type="curve"/>
      <point x="148" y="488" type="line"/>
      <point x="75" y="488" type="line"/>
    </contour>
  </outline>
</glyph>
<glyph name="o" format="2">
  <advance width="580"/>
  <unicode hex="006F"/>
  <anchor x="290" y="488" name="top"/>
  <outline>
    <contour>
      <point x="290" y="-8" type="curve" smooth="yes"/>
      <point x="425" y="-8"/>
      <point x="527" y="100"/>
      <point x="527" y="244" type="curve" smooth="yes"/>
      <point x="527" y="388"/>
      <point x="425" y="496"/>
      <point x="290" y="496" type="curve" smooth="yes"/>
      <point x="155" y="496"/>
      <point x="53" y="388"/>
      <point x="53" y="244" type="curve" smooth="yes"/>
      <point x="53" y="100"/>
      <point x="155" y="-8"/>
    </contour>
    <contour>
      <point x="290" y="56" type="curve" smooth="yes"/>
      <point x="195" y="56"/>
      <point x="125" y="137"/>
      <point x="125" y="244" type="curve" smooth="yes"/>
      <point x="125" y="351"/>
      <point x="195" y="432"/>
      <point x="290" y="432" type="curve" smooth="yes"/>
      <point x="385" y="432"/>
      <point x="455" y="351"/>
      <point x="455" y="244" type="curve" smooth="yes"/>
      <point x="455" y="137"/>
      <point x="385" y="56"/>
    </contour>
  </outline>
</glyph>
<glyph name="p" format="2">
  <advance width="583"/>
  <unicode hex="0070"/>
  <outline>
    <contour>
      <point x="75" y="-209" type="line"/>
      <point x="148" y="-209" type="line"/>
      <point x="148" y="61" type="line"/>
      <point x="186" y="17"/>
      <point x="240" y="-7"/>
      <point x="301" y="-7" type="curve" smooth="yes"/>
      <point x="430" y="-7"/>
      <point x="530" y="103"/>
      <point x="530" y="244" type="curve" smooth="yes"/>
      <point x="530" y="384"/>
      <point x="432" y="494"/>
      <point x="305" y="494" type="curve" smooth="yes"/>
      <point x="240" y="494"/>
      <point x="184" y="467"/>
      <point x="147" y="418" type="curve"/>
      <point x="147" y="488" type="line"/>
      <point x="75" y="488" type="line"/>
    </contour>
    <contour>
      <point x="287" y="56" type="curve" smooth="yes"/>
      <point x="231" y="56"/>
      <point x="180" y="81"/>
      <point x="148" y="124" type="curve"/>
      <point x="148" y="363" type="line"/>
      <point x="179" y="406"/>
      <point x="229" y="430"/>
      <point x="287" y="430" type="curve" smooth="yes"/>
      <point x="385" y="430"/>
      <point x="458" y="350"/>
      <point x="458" y="243" type="curve" smooth="yes"/>
      <point x="458" y="136"/>
      <point x="385" y="56"/>
    </contour>
  </outline>
</glyph>
<glyph name="q" format="2">
  <advance width="582"/>
  <unicode hex="0071"/>
  <outline>
    <contour>
      <point x="434" y="-209" type="line"/>
      <point x="507" y="-209" type="line"/>
      <point x="507" y="488" type="line"/>
      <point x="434" y="488" type="line"/>
      <point x="434" y="426" type="line"/>
      <point x="395" y="470"/>
      <point x="342" y="494"/>
      <point x="282" y="494" type="curve" smooth="yes"/>
      <point x="153" y="494"/>
      <point x="53" y="384"/>
      <point x="53" y="243" type="curve" smooth="yes"/>
      <point x="53" y="103"/>
      <point x="151" y="-7"/>
      <point x="278" y="-7" type="curve" smooth="yes"/>
      <point x="342" y="-7"/>
      <point x="397" y="18"/>
      <point x="434" y="65" type="curve"/>
    </contour>
    <contour>
      <point x="296" y="57" type="curve" smooth="yes"/>
      <point x="198" y="57"/>
      <point x="125" y="137"/>
      <point x="125" y="244" type="curve" smooth="yes"/>
      <point x="125" y="351"/>
      <point x="198" y="430"/>
      <point x="296" y="430" type="curve" smooth="yes"/>
      <point x="351" y="430"/>
      <point x="402" y="405"/>
      <point x="434" y="364" type="curve"/>
      <point x="434" y="122" type="line"/>
      <point x="403" y="80"/>
      <point x="353" y="57"/>
    </contour>
  </outline>
</glyph>
<glyph name="s" format="2">
  <advance width="452"/>
  <unicode hex="0073"/>
  <note>
Version created Fri Aug  3 17:49:29 2018
</note>
  <anchor x="216" y="488" name="top"/>
  <anchor x="226" y="0" name="bottom"/>
  <outline>
    <contour>
      <point x="226" y="-10" type="curve" smooth="yes"/>
      <point x="334" y="-10"/>
      <point x="416" y="56"/>
      <point x="416" y="142" type="curve" smooth="yes"/>
      <point x="416" y="214"/>
      <point x="372" y="255"/>
      <point x="274" y="273" type="curve" smooth="yes"/>
      <point x="192" y="288" type="line" smooth="yes"/>
      <point x="129" y="299"/>
      <point x="108" y="318"/>
      <point x="108" y="358" type="curve" smooth="yes"/>
      <point x="108" y="406"/>
      <point x="150" y="436"/>
      <point x="214" y="436" type="curve"/>
      <point x="266" y="436"/>
      <point x="316" y="420"/>
      <point x="367" y="384" type="curve"/>
      <point x="403" y="435" type="line"/>
      <point x="341" y="477"/>
      <point x="284" y="496"/>
      <point x="217" y="496" type="curve"/>
      <point x="114" y="496"/>
      <point x="41" y="437"/>
      <point x="41" y="353" type="curve" smooth="yes"/>
      <point x="41" y="282"/>
      <point x="84" y="242"/>
      <point x="179" y="225" type="curve" smooth="yes"/>
      <point x="259" y="211" type="line" smooth="yes"/>
      <point x="321" y="199"/>
      <point x="347" y="178"/>
      <point x="347" y="138" type="curve" smooth="yes"/>
      <point x="347" y="86"/>
      <point x="295" y="49"/>
      <point x="224" y="49" type="curve" smooth="yes"/>
      <point x="172" y="49"/>
      <point x="125" y="67"/>
      <point x="67" y="110" type="curve"/>
      <point x="28" y="62" type="line"/>
      <point x="76" y="15"/>
      <point x="146" y="-10"/>
    </contour>
  </outline>
</glyph>
<glyph name="t" format="2">
  <advance width="378"/>
  <unicode hex="0074"/>
  <anchor x="234" y="0" name="bottom"/>
  <outline>
    <contour>
      <point x="261" y="-10" type="curve" smooth="yes"/>
      <point x="289" y="-10"/>
      <point x="319" y="-6"/>
      <point x="346" y="3" type="curve"/>
      <point x="346" y="68" type="line"/>
      <point x="319" y="58"/>
      <point x="302" y="55"/>
      <point x="277" y="55" type="curve" smooth="yes"/>
      <point x="226" y="55"/>
      <point x="206" y="76"/>
      <point x="206" y="128" type="curve" smooth="yes"/>
      <point x="206" y="428" type="line"/>
      <point x="346" y="428" type="line"/>
      <point x="346" y="488" type="line"/>
      <point x="206" y="488" type="line"/>
      <point x="206" y="639" type="line"/>
      <point x="133" y="622" type="line"/>
      <point x="133" y="488" type="line"/>
      <point x="32" y="488" type="line"/>
      <point x="32" y="428" type="line"/>
      <point x="133" y="428" type="line"/>
      <point x="133" y="109" type="line" smooth="yes"/>
      <point x="133" y="31"/>
      <point x="177" y="-10"/>
    </contour>
  </outline>
</glyph>
<glyph name="v" format="2">
  <advance width="501"/>
  <unicode hex="0076"/>
  <outline>
    <contour>
      <point x="215" y="0" type="line"/>
      <point x="285" y="0" type="line"/>
      <point x="486" y="488" type="line"/>
      <point x="408" y="488" type="line"/>
      <point x="252" y="91" type="line"/>
      <point x="94" y="488" type="line"/>
      <point x="15" y="488" type="line"/>
    </contour>
  </outline>
</glyph>
<glyph name="x" format="2">
  <advance width="487"/>
  <unicode hex="0078"/>
  <outline>
    <contour>
      <point x="13" y="0" type="line"/>
      <point x="96" y="0" type="line"/>
      <point x="241" y="199" type="line"/>
      <point x="387" y="0" type="line"/>
      <point x="474" y="0" type="line"/>
      <point x="286" y="251" type="line"/>
      <point x="463" y="488" type="line"/>
      <point x="380" y="488" type="line"/>
      <point x="246" y="302" type="line"/>
      <point x="111" y="488" type="line"/>
      <point x="24" y="488" type="line"/>
      <point x="200" y="253" type="line"/>
    </contour>
  </outline>
</glyph>
<glyph name="braceleft" format="2">
  <advance width="394"/>
  <unicode hex="007B"/>
  <outline>
    <contour>
      <point x="265" y="-219" type="curve"/>
      <point x="291" y="-219"/>
      <point x="314" y="-215"/>
      <point x="342" y="-204" type="curve"/>
      <point x="328" y="-148" type="line"/>
      <point x="306" y="-156"/>
      <point x="289" y="-159"/>
      <point x="269" y="-159" type="curve"/>
      <point x="207" y="-158"/>
      <point x="182" y="-108"/>
      <point x="208" y="-37" type="curve" smooth="yes"/>
      <point x="254" y="85" type="line" smooth="yes"/>
      <point x="280" y="158"/>
      <point x="248" y="225"/>
      <point x="177" y="246" type="curve"/>
      <point x="247" y="265"/>
      <point x="281" y="333"/>
      <point x="254" y="406" type="curve" smooth="yes"/>
      <point x="208" y="529" type="line" smooth="yes"/>
      <point x="182" y="599"/>
      <point x="207" y="650"/>
      <point x="269" y="651" type="curve"/>
      <point x="289" y="651"/>
      <point x="306" y="648"/>
      <point x="328" y="640" type="curve"/>
      <point x="342" y="696" type="line"/>
      <point x="314" y="707"/>
      <point x="291" y="711"/>
      <point x="265" y="711" type="curve"/>
      <point x="154" y="711"/>
      <point x="102" y="625"/>
      <point x="146" y="512" type="curve" smooth="yes"/>
      <point x="186" y="410" type="line" smooth="yes"/>
      <point x="216" y="334"/>
      <point x="185" y="276"/>
      <point x="116" y="276" type="curve" smooth="yes"/>
      <point x="42" y="276" type="line"/>
      <point x="42" y="215" type="line"/>
      <point x="116" y="215" type="line" smooth="yes"/>
      <point x="185" y="215"/>
      <point x="215" y="157"/>
      <point x="186" y="81" type="curve" smooth="yes"/>
      <point x="146" y="-20" type="line" smooth="yes"/>
      <point x="103" y="-133"/>
      <point x="154" y="-219"/>
    </contour>
  </outline>
</glyph>
<glyph name="bar" format="2">
  <advance width="291"/>
  <unicode hex="007C"/>
  <outline>
    <contour>
      <point x="112" y="-209" type="line"/>
      <point x="179" y="-209" type="line"/>
      <point x="179" y="700" type="line"/>
      <point x="112" y="700" type="line"/>
    </contour>
  </outline>
</glyph>
<glyph name="sterling" format="2">
  <advance width="616"/>
  <unicode hex="00A3"/>
  <outline>
    <contour>
      <point x="457" y="-21" type="curve" smooth="yes"/>
      <point x="521" y="-21"/>
      <point x="568" y="8"/>
      <point x="603" y="69" type="curve"/>
      <point x="548" y="104" type="line"/>
      <point x="526" y="63"/>
      <point x="497" y="44"/>
      <point x="454" y="44" type="curve" smooth="yes"/>
      <point x="441" y="44"/>
      <point x="427" y="46"/>
      <point x="412" y="49" type="curve" smooth="yes"/>
      <point x="218" y="89" type="line"/>
      <point x="236" y="108"/>
      <point x="245" y="135"/>
      <point x="245" y="169" type="curve" smooth="yes"/>
      <point x="245" y="181"/>
      <point x="244" y="194"/>
      <point x="225" y="312" type="curve"/>
      <point x="414" y="312" type="line"/>
      <point x="414" y="369" type="line"/>
      <point x="215" y="369" type="line"/>
      <point x="199" y="462"/>
      <point x="198" y="482"/>
      <point x="198" y="501" type="curve" smooth="yes"/>
      <point x="198" y="595"/>
      <point x="244" y="648"/>
      <point x="332" y="648" type="curve" smooth="yes"/>
      <point x="412" y="648"/>
      <point x="464" y="602"/>
      <point x="483" y="516" type="curve"/>
      <point x="549" y="535" type="line"/>
      <point x="522" y="650"/>
      <point x="447" y="711"/>
      <point x="332" y="711" type="curve" smooth="yes"/>
      <point x="204" y="711"/>
      <point x="127" y="628"/>
      <point x="127" y="494" type="curve" smooth="yes"/>
      <point x="127" y="471"/>
      <point x="130" y="447"/>
      <point x="143" y="369" type="curve"/>
      <point x="52" y="369" type="line"/>
      <point x="52" y="312" type="line"/>
      <point x="153" y="312" type="line"/>
      <point x="177" y="177"/>
      <point x="178" y="168"/>
      <point x="178" y="160" type="curve" smooth="yes"/>
      <point x="178" y="130"/>
      <point x="167" y="108"/>
      <point x="148" y="95" type="curve"/>
      <point x="90" y="90"/>
      <point x="46" y="59"/>
      <point x="12" y="-1" type="curve"/>
      <point x="66" y="-37" type="line"/>
      <point x="90" y="10"/>
      <point x="120" y="31"/>
      <point x="166" y="31" type="curve" smooth="yes"/>
      <point x="178" y="31"/>
      <point x="191" y="30"/>
      <point x="205" y="27" type="curve" smooth="yes"/>
      <point x="399" y="-14" type="line" smooth="yes"/>
      <point x="420" y="-19"/>
      <point x="439" y="-21"/>
    </contour>
  </outline>
</glyph>
<glyph name="uni00A6" format="2">
  <advance width="292"/>
  <unicode hex="00A6"/>
  <outline>
    <contour>
      <point x="112" y="287" type="line"/>
      <point x="180" y="287" type="line"/>
      <point x="180" y="700" type="line"/>
      <point x="112" y="700" type="line"/>
    </contour>
    <contour>
      <point x="112" y="-209" type="line"/>
      <point x="180" y="-209" type="line"/>
      <point x="180" y="204" type="line"/>
      <point x="112" y="204" type="line"/>
    </contour>
  </outline>
</glyph>
<glyph name="section" format="2">
  <advance width="568"/>
  <unicode hex="00A7"/>
  <outline>
    <contour>
      <point x="281" y="-50" type="curve" smooth="yes"/>
      <point x="380" y="-50"/>
      <point x="445" y="4"/>
      <point x="445" y="86" type="curve" smooth="yes"/>
      <point x="445" y="130"/>
      <point x="428" y="164"/>
      <point x="393" y="190" type="curve"/>
      <point x="458" y="208"/>
      <point x="498" y="254"/>
      <point x="498" y="315" type="curve" smooth="yes"/>
      <point x="498" y="388"/>
      <point x="462" y="427"/>
      <point x="364" y="460" type="curve" smooth="yes"/>
      <point x="261" y="496" type="line" smooth="yes"/>
      <point x="211" y="513"/>
      <point x="188" y="538"/>
      <point x="188" y="577" type="curve" smooth="yes"/>
      <point x="188" y="626"/>
      <point x="225" y="656"/>
      <point x="287" y="656" type="curve" smooth="yes"/>
      <point x="327" y="656"/>
      <point x="376" y="640"/>
      <point x="429" y="609" type="curve"/>
      <point x="458" y="662" type="line"/>
      <point x="401" y="693"/>
      <point x="341" y="711"/>
      <point x="287" y="711" type="curve" smooth="yes"/>
      <point x="188" y="711"/>
      <point x="122" y="656"/>
      <point x="122" y="574" type="curve" smooth="yes"/>
      <point x="122" y="530"/>
      <point x="139" y="496"/>
      <point x="174" y="470" type="curve"/>
      <point x="109" y="453"/>
      <point x="70" y="407"/>
      <point x="70" y="345" type="curve" smooth="yes"/>
      <point x="70" y="273"/>
      <point x="106" y="234"/>
      <point x="203" y="201" type="curve" smooth="yes"/>
      <point x="307" y="165" type="line" smooth="yes"/>
      <point x="358" y="148"/>
      <point x="379" y="123"/>
      <point x="379" y="84" type="curve" smooth="yes"/>
      <point x="379" y="35"/>
      <point x="342" y="5"/>
      <point x="281" y="5" type="curve" smooth="yes"/>
      <point x="240" y="5"/>
      <point x="192" y="21"/>
      <point x="139" y="51" type="curve"/>
      <point x="110" y="-2" type="line"/>
      <point x="165" y="-33"/>
      <point x="225" y="-50"/>
    </contour>
    <contour>
      <point x="336" y="220" type="curve"/>
      <point x="333" y="221"/>
      <point x="331" y="222"/>
      <point x="328" y="223" type="curve" smooth="yes"/>
      <point x="219" y="260" type="line" smooth="yes"/>
      <point x="159" y="282"/>
      <point x="133" y="309"/>
      <point x="133" y="350" type="curve" smooth="yes"/>
      <point x="133" y="400"/>
      <point x="171" y="433"/>
      <point x="231" y="440" type="curve"/>
      <point x="234" y="439"/>
      <point x="236" y="438"/>
      <point x="239" y="437" type="curve" smooth="yes"/>
      <point x="349" y="400" type="line" smooth="yes"/>
      <point x="408" y="379"/>
      <point x="435" y="352"/>
      <point x="435" y="310" type="curve" smooth="yes"/>
      <point x="435" y="262"/>
      <point x="396" y="227"/>
    </contour>
  </outline>
</glyph>
<glyph name="copyright" format="2">
  <advance width="797"/>
  <unicode hex="00A9"/>
  <outline>
    <contour>
      <point x="408" y="166" type="curve" smooth="yes"/>
      <point x="459" y="166"/>
      <point x="506" y="187"/>
      <point x="541" y="223" type="curve"/>
      <point x="507" y="262" type="line"/>
      <point x="478" y="232"/>
      <point x="446" y="218"/>
      <point x="410" y="218" type="curve" smooth="yes"/>
      <point x="343" y="218"/>
      <point x="291" y="275"/>
      <point x="291" y="350" type="curve" smooth="yes"/>
      <point x="291" y="425"/>
      <point x="343" y="483"/>
      <point x="410" y="483" type="curve" smooth="yes"/>
      <point x="445" y="483"/>
      <point x="481" y="466"/>
      <point x="507" y="437" type="curve"/>
      <point x="542" y="477" type="line"/>
      <point x="508" y="514"/>
      <point x="459" y="535"/>
      <point x="408" y="535" type="curve" smooth="yes"/>
      <point x="312" y="535"/>
      <point x="236" y="453"/>
      <point x="236" y="350" type="curve" smooth="yes"/>
      <point x="236" y="247"/>
      <point x="312" y="166"/>
    </contour>
    <contour>
      <point x="398" y="-11" type="curve" smooth="yes"/>
      <point x="591" y="-11"/>
      <point x="741" y="146"/>
      <point x="741" y="350" type="curve" smooth="yes"/>
      <point x="741" y="554"/>
      <point x="591" y="711"/>
      <point x="398" y="711" type="curve" smooth="yes"/>
      <point x="206" y="711"/>
      <point x="56" y="553"/>
      <point x="56" y="350" type="curve" smooth="yes"/>
      <point x="56" y="147"/>
      <point x="206" y="-11"/>
    </contour>
    <contour>
      <point x="398" y="32" type="curve" smooth="yes"/>
      <point x="234" y="32"/>
      <point x="102" y="173"/>
      <point x="102" y="350" type="curve" smooth="yes"/>
      <point x="102" y="527"/>
      <point x="234" y="668"/>
      <point x="398" y="668" type="curve" smooth="yes"/>
      <point x="565" y="668"/>
      <point x="696" y="527"/>
      <point x="696" y="350" type="curve" smooth="yes"/>
      <point x="696" y="173"/>
      <point x="565" y="32"/>
    </contour>
  </outline>
</glyph>
<glyph name="ordfeminine" format="2">
  <advance width="408"/>
  <unicode hex="00AA"/>
  <outline>
    <contour>
      <point x="173" y="319" type="curve" smooth="yes"/>
      <point x="220" y="319"/>
      <point x="258" y="334"/>
      <point x="293" y="366" type="curve"/>
      <point x="293" y="326" type="line"/>
      <point x="354" y="326" type="line"/>
      <point x="354" y="578" type="line" smooth="yes"/>
      <point x="354" y="663"/>
      <point x="300" y="711"/>
      <point x="203" y="711" type="curve" smooth="yes"/>
      <point x="157" y="711"/>
      <point x="111" y="700"/>
      <point x="55" y="673" type="curve"/>
      <point x="78" y="626" type="line"/>
      <point x="124" y="648"/>
      <point x="160" y="658"/>
      <point x="196" y="658" type="curve" smooth="yes"/>
      <point x="260" y="658"/>
      <point x="293" y="629"/>
      <point x="293" y="571" type="curve" smooth="yes"/>
      <point x="293" y="522" type="line"/>
      <point x="260" y="539"/>
      <point x="223" y="548"/>
      <point x="186" y="548" type="curve" smooth="yes"/>
      <point x="92" y="548"/>
      <point x="33" y="504"/>
      <point x="33" y="433" type="curve" smooth="yes"/>
      <point x="33" y="366"/>
      <point x="90" y="319"/>
    </contour>
    <contour>
      <point x="185" y="367" type="curve" smooth="yes"/>
      <point x="130" y="367"/>
      <point x="93" y="394"/>
      <point x="93" y="435" type="curve" smooth="yes"/>
      <point x="93" y="477"/>
      <point x="130" y="504"/>
      <point x="188" y="504" type="curve" smooth="yes"/>
      <point x="230" y="504"/>
      <point x="263" y="496"/>
      <point x="293" y="477" type="curve"/>
      <point x="293" y="406" type="line"/>
      <point x="264" y="380"/>
      <point x="228" y="367"/>
    </contour>
  </outline>
</glyph>
<glyph name="macron" format="2">
  <advance width="600"/>
  <unicode hex="00AF"/>
  <anchor x="300" y="488" name="_top"/>
  <outline>
    <contour>
      <point x="164" y="611" type="line"/>
      <point x="436" y="611" type="line"/>
      <point x="436" y="663" type="line"/>
      <point x="164" y="663" type="line"/>
    </contour>
  </outline>
</glyph>
<glyph name="twosuperior" format="2">
  <advance width="291"/>
  <unicode hex="00B2"/>
  <outline>
    <contour>
      <point x="27" y="350" type="line"/>
      <point x="269" y="350" type="line"/>
      <point x="269" y="394" type="line"/>
      <point x="94" y="394" type="line"/>
      <point x="201" y="494" type="line" smooth="yes"/>
      <point x="248" y="537"/>
      <point x="264" y="564"/>
      <point x="264" y="604" type="curve" smooth="yes"/>
      <point x="264" y="662"/>
      <point x="215" y="705"/>
      <point x="144" y="705" type="curve" smooth="yes"/>
      <point x="99" y="705"/>
      <point x="58" y="686"/>
      <point x="19" y="652" type="curve"/>
      <point x="48" y="617" type="line"/>
      <point x="85" y="650"/>
      <point x="111" y="660"/>
      <point x="143" y="660" type="curve" smooth="yes"/>
      <point x="184" y="660"/>
      <point x="214" y="634"/>
      <point x="214" y="600" type="curve" smooth="yes"/>
      <point x="214" y="572"/>
      <point x="202" y="551"/>
      <point x="167" y="518" type="curve" smooth="yes"/>
      <point x="27" y="388" type="line"/>
    </contour>
  </outline>
</glyph>
<glyph name="acute" format="2">
  <advance width="600"/>
  <unicode hex="00B4"/>
  <outline>
    <contour>
      <point x="236" y="584" type="line"/>
      <point x="303" y="584" type="line"/>
      <point x="447" y="706" type="line"/>
      <point x="348" y="706" type="line"/>
    </contour>
  </outline>
</glyph>
<glyph name="onesuperior" format="2">
  <advance width="165"/>
  <unicode hex="00B9"/>
  <outline>
    <contour>
      <point x="84" y="350" type="line"/>
      <point x="135" y="350" type="line"/>
      <point x="135" y="700" type="line"/>
      <point x="103" y="700" type="line"/>
      <point x="21" y="665" type="line"/>
      <point x="21" y="620" type="line"/>
      <point x="84" y="646" type="line"/>
    </contour>
  </outline>
</glyph>
<glyph name="ordmasculine" format="2">
  <advance width="464"/>
  <unicode hex="00BA"/>
  <outline>
    <contour>
      <point x="232" y="317" type="curve" smooth="yes"/>
      <point x="340" y="317"/>
      <point x="426" y="403"/>
      <point x="426" y="514" type="curve" smooth="yes"/>
      <point x="426" y="625"/>
      <point x="340" y="711"/>
      <point x="232" y="711" type="curve" smooth="yes"/>
      <point x="124" y="711"/>
      <point x="38" y="625"/>
      <point x="38" y="514" type="curve" smooth="yes"/>
      <point x="38" y="403"/>
      <point x="124" y="317"/>
    </contour>
    <contour>
      <point x="232" y="372" type="curve" smooth="yes"/>
      <point x="158" y="372"/>
      <point x="100" y="434"/>
      <point x="100" y="514" type="curve" smooth="yes"/>
      <point x="100" y="594"/>
      <point x="158" y="656"/>
      <point x="232" y="656" type="curve" smooth="yes"/>
      <point x="306" y="656"/>
      <point x="364" y="594"/>
      <point x="364" y="514" type="curve" smooth="yes"/>
      <point x="364" y="434"/>
      <point x="306" y="372"/>
    </contour>
  </outline>
</glyph>
<glyph name="Thorn" format="2">
  <advance width="654"/>
  <unicode hex="00DE"/>
  <outline>
    <contour>
      <point x="89" y="0" type="line"/>
      <point x="166" y="0" type="line"/>
      <point x="166" y="143" type="line"/>
      <point x="378" y="143" type="line" smooth="yes"/>
      <point x="514" y="143"/>
      <point x="601" y="225"/>
      <point x="601" y="350" type="curve" smooth="yes"/>
      <point x="601" y="475"/>
      <point x="514" y="557"/>
      <point x="378" y="557" type="curve" smooth="yes"/>
      <point x="166" y="557" type="line"/>
      <point x="166" y="700" type="line"/>
      <point x="89" y="700" type="line"/>
    </contour>
    <contour>
      <point x="166" y="209" type="line"/>
      <point x="166" y="490" type="line"/>
      <point x="369" y="490" type="line" smooth="yes"/>
      <point x="466" y="490"/>
      <point x="524" y="436"/>
      <point x="524" y="350" type="curve" smooth="yes"/>
      <point x="524" y="264"/>
      <point x="466" y="209"/>
      <point x="369" y="209" type="curve" smooth="yes"/>
    </contour>
  </outline>
</glyph>
<glyph name="thorn" format="2">
  <advance width="583"/>
  <unicode hex="00FE"/>
  <outline>
    <contour>
      <point x="75" y="-209" type="line"/>
      <point x="148" y="-209" type="line"/>
      <point x="148" y="61" type="line"/>
      <point x="186" y="17"/>
      <point x="240" y="-7"/>
      <point x="301" y="-7" type="curve" smooth="yes"/>
      <point x="430" y="-7"/>
      <point x="530" y="103"/>
      <point x="530" y="244" type="curve" smooth="yes"/>
      <point x="530" y="384"/>
      <point x="432" y="494"/>
      <point x="305" y="494" type="curve" smooth="yes"/>
      <point x="240" y="494"/>
      <point x="185" y="467"/>
      <point x="148" y="420" type="curve"/>
      <point x="148" y="737" type="line"/>
      <point x="75" y="722" type="line"/>
    </contour>
    <contour>
      <point x="287" y="430" type="curve" smooth="yes"/>
      <point x="385" y="430"/>
      <point x="458" y="350"/>
      <point x="458" y="243" type="curve" smooth="yes"/>
      <point x="458" y="136"/>
      <point x="385" y="56"/>
      <point x="287" y="56" type="curve" smooth="yes"/>
      <point x="231" y="56"/>
      <point x="180" y="81"/>
      <point x="148" y="124" type="curve"/>
      <point x="148" y="363" type="line"/>
      <point x="179" y="406"/>
      <point x="229" y="430"/>
    </contour>
  </outline>
</glyph>
<glyph name="hbar" format="2">
  <advance width="558"/>
  <unicode hex="0127"/>
  <outline>
    <contour>
      <point x="81" y="0" type="line"/>
      <point x="154" y="0" type="line"/>
      <point x="154" y="360" type="line"/>
      <point x="183" y="409"/>
      <point x="228" y="435"/>
      <point x="282" y="435" type="curve" smooth="yes"/>
      <point x="362" y="435"/>
      <point x="413" y="381"/>
      <point x="413" y="295" type="curve" smooth="yes"/>
      <point x="413" y="0" type="line"/>
      <point x="486" y="0" type="line"/>
      <point x="486" y="316" type="line" smooth="yes"/>
      <point x="486" y="423"/>
      <point x="414" y="496"/>
      <point x="309" y="496" type="curve" smooth="yes"/>
      <point x="244" y="496"/>
      <point x="191" y="467"/>
      <point x="154" y="409" type="curve"/>
      <point x="154" y="573" type="line"/>
      <point x="299" y="573" type="line"/>
      <point x="299" y="627" type="line"/>
      <point x="154" y="627" type="line"/>
      <point x="154" y="737" type="line"/>
      <point x="81" y="722" type="line"/>
      <point x="81" y="627" type="line"/>
      <point x="20" y="627" type="line"/>
      <point x="20" y="573" type="line"/>
      <point x="81" y="573" type="line"/>
    </contour>
  </outline>
</glyph>
<glyph name="kgreenlandic" format="2">
  <advance width="489"/>
  <unicode hex="0138"/>
  <outline>
    <contour>
      <point x="75" y="0" type="line"/>
      <point x="148" y="0" type="line"/>
      <point x="148" y="233" type="line"/>
      <point x="383" y="0" type="line"/>
      <point x="479" y="0" type="line"/>
      <point x="220" y="256" type="line"/>
      <point x="468" y="488" type="line"/>
      <point x="380" y="488" type="line"/>
      <point x="148" y="269" type="line"/>
      <point x="148" y="488" type="line"/>
      <point x="75" y="488" type="line"/>
    </contour>
  </outline>
</glyph>
<glyph name="Lslash" format="2">
  <advance width="625"/>
  <unicode hex="0141"/>
  <outline>
    <contour>
      <point x="107" y="0" type="line"/>
      <point x="579" y="0" type="line"/>
      <point x="579" y="68" type="line"/>
      <point x="184" y="68" type="line"/>
      <point x="184" y="304" type="line"/>
      <point x="360" y="441" type="line"/>
      <point x="360" y="515" type="line"/>
      <point x="184" y="378" type="line"/>
      <point x="184" y="700" type="line"/>
      <point x="107" y="700" type="line"/>
      <point x="107" y="318" type="line"/>
      <point x="14" y="245" type="line"/>
      <point x="14" y="171" type="line"/>
      <point x="107" y="244" type="line"/>
    </contour>
  </outline>
</glyph>
<glyph name="lslash" format="2">
  <advance width="281"/>
  <unicode hex="0142"/>
  <outline>
    <contour>
      <point x="105" y="0" type="line"/>
      <point x="178" y="0" type="line"/>
      <point x="178" y="362" type="line"/>
      <point x="272" y="437" type="line"/>
      <point x="272" y="512" type="line"/>
      <point x="178" y="438" type="line"/>
      <point x="178" y="737" type="line"/>
      <point x="105" y="722" type="line"/>
      <point x="105" y="380" type="line"/>
      <point x="9" y="304" type="line"/>
      <point x="9" y="228" type="line"/>
      <point x="105" y="304" type="line"/>
    </contour>
  </outline>
</glyph>
<glyph name="eng" format="2">
  <advance width="552"/>
  <unicode hex="014B"/>
  <outline>
    <contour>
      <point x="357" y="-219" type="curve" smooth="yes"/>
      <point x="436" y="-219"/>
      <point x="480" y="-174"/>
      <point x="480" y="-93" type="curve" smooth="yes"/>
      <point x="480" y="316" type="line" smooth="yes"/>
      <point x="480" y="423"/>
      <point x="408" y="496"/>
      <point x="303" y="496" type="curve" smooth="yes"/>
      <point x="238" y="496"/>
      <point x="185" y="467"/>
      <point x="148" y="409" type="curve"/>
      <point x="148" y="488" type="line"/>
      <point x="75" y="488" type="line"/>
      <point x="75" y="0" type="line"/>
      <point x="148" y="0" type="line"/>
      <point x="148" y="360" type="line"/>
      <point x="177" y="409"/>
      <point x="222" y="435"/>
      <point x="276" y="435" type="curve" smooth="yes"/>
      <point x="356" y="435"/>
      <point x="407" y="381"/>
      <point x="407" y="295" type="curve" smooth="yes"/>
      <point x="407" y="-89" type="line" smooth="yes"/>
      <point x="407" y="-134"/>
      <point x="390" y="-153"/>
      <point x="348" y="-153" type="curve" smooth="yes"/>
      <point x="334" y="-153"/>
      <point x="324" y="-152"/>
      <point x="312" y="-149" type="curve"/>
      <point x="312" y="-213" type="line"/>
      <point x="331" y="-217"/>
      <point x="344" y="-219"/>
    </contour>
  </outline>
</glyph>
<glyph name="Scedilla" format="2">
  <advance width="623"/>
  <unicode hex="015E"/>
  <outline>
    <contour>
      <point x="306" y="-237" type="curve" smooth="yes"/>
      <point x="371" y="-237"/>
      <point x="417" y="-198"/>
      <point x="417" y="-144" type="curve" smooth="yes"/>
      <point x="417" y="-97"/>
      <point x="379" y="-67"/>
      <point x="320" y="-64" type="curve"/>
      <point x="332" y="-11" type="line"/>
      <point x="477" y="-4"/>
      <point x="581" y="84"/>
      <point x="581" y="201" type="curve" smooth="yes"/>
      <point x="581" y="306"/>
      <point x="517" y="362"/>
      <point x="368" y="389" type="curve" smooth="yes"/>
      <point x="256" y="408" type="line" smooth="yes"/>
      <point x="162" y="423"/>
      <point x="124" y="455"/>
      <point x="124" y="517" type="curve" smooth="yes"/>
      <point x="124" y="590"/>
      <point x="193" y="646"/>
      <point x="291" y="646" type="curve" smooth="yes"/>
      <point x="373" y="646"/>
      <point x="455" y="616"/>
      <point x="527" y="562" type="curve"/>
      <point x="567" y="622" type="line"/>
      <point x="480" y="683"/>
      <point x="394" y="711"/>
      <point x="290" y="711" type="curve" smooth="yes"/>
      <point x="148" y="711"/>
      <point x="50" y="627"/>
      <point x="50" y="509" type="curve" smooth="yes"/>
      <point x="50" y="415"/>
      <point x="107" y="362"/>
      <point x="235" y="339" type="curve" smooth="yes"/>
      <point x="348" y="320" type="line" smooth="yes"/>
      <point x="462" y="300"/>
      <point x="504" y="267"/>
      <point x="504" y="197" type="curve" smooth="yes"/>
      <point x="504" y="115"/>
      <point x="425" y="55"/>
      <point x="317" y="55" type="curve" smooth="yes"/>
      <point x="226" y="55"/>
      <point x="159" y="85"/>
      <point x="75" y="164" type="curve"/>
      <point x="28" y="108" type="line"/>
      <point x="107" y="34"/>
      <point x="191" y="-5"/>
      <point x="290" y="-10" type="curve"/>
      <point x="268" y="-97" type="line"/>
      <point x="297" y="-97" type="line" smooth="yes"/>
      <point x="342" y="-97"/>
      <point x="368" y="-115"/>
      <point x="368" y="-146" type="curve" smooth="yes"/>
      <point x="368" y="-178"/>
      <point x="344" y="-198"/>
      <point x="303" y="-198" type="curve" smooth="yes"/>
      <point x="274" y="-198"/>
      <point x="247" y="-188"/>
      <point x="224" y="-169" type="curve"/>
      <point x="196" y="-201" type="line"/>
      <point x="223" y="-225"/>
      <point x="261" y="-237"/>
    </contour>
  </outline>
</glyph>
<glyph name="tcaron" format="2">
  <advance width="378"/>
  <unicode hex="0165"/>
  <outline>
    <contour>
      <point x="293" y="587" type="line"/>
      <point x="349" y="587" type="line"/>
      <point x="374" y="787" type="line"/>
      <point x="298" y="772" type="line"/>
    </contour>
    <contour>
      <point x="261" y="-10" type="curve" smooth="yes"/>
      <point x="289" y="-10"/>
      <point x="319" y="-6"/>
      <point x="346" y="3" type="curve"/>
      <point x="346" y="68" type="line"/>
      <point x="319" y="58"/>
      <point x="302" y="55"/>
      <point x="277" y="55" type="curve" smooth="yes"/>
      <point x="226" y="55"/>
      <point x="206" y="76"/>
      <point x="206" y="128" type="curve" smooth="yes"/>
      <point x="206" y="428" type="line"/>
      <point x="346" y="428" type="line"/>
      <point x="346" y="488" type="line"/>
      <point x="206" y="488" type="line"/>
      <point x="206" y="639" type="line"/>
      <point x="133" y="622" type="line"/>
      <point x="133" y="488" type="line"/>
      <point x="32" y="488" type="line"/>
      <point x="32" y="428" type="line"/>
      <point x="133" y="428" type="line"/>
      <point x="133" y="109" type="line" smooth="yes"/>
      <point x="133" y="31"/>
      <point x="177" y="-10"/>
    </contour>
  </outline>
</glyph>
<glyph name="uogonek" format="2">
  <advance width="552"/>
  <unicode hex="0173"/>
  <outline>
    <contour>
      <point x="429" y="-231" type="curve" smooth="yes"/>
      <point x="456" y="-231"/>
      <point x="483" y="-224"/>
      <point x="502" y="-212" type="curve"/>
      <point x="488" y="-173" type="line"/>
      <point x="476" y="-181"/>
      <point x="457" y="-185"/>
      <point x="440" y="-185" type="curve" smooth="yes"/>
      <point x="398" y="-185"/>
      <point x="373" y="-164"/>
      <point x="373" y="-128" type="curve" smooth="yes"/>
      <point x="373" y="-87"/>
      <point x="405" y="-47"/>
      <point x="477" y="0" type="curve"/>
      <point x="477" y="488" type="line"/>
      <point x="404" y="488" type="line"/>
      <point x="404" y="127" type="line"/>
      <point x="375" y="79"/>
      <point x="330" y="53"/>
      <point x="276" y="53" type="curve" smooth="yes"/>
      <point x="196" y="53"/>
      <point x="146" y="107"/>
      <point x="146" y="194" type="curve" smooth="yes"/>
      <point x="146" y="488" type="line"/>
      <point x="72" y="488" type="line"/>
      <point x="72" y="173" type="line" smooth="yes"/>
      <point x="72" y="66"/>
      <point x="144" y="-8"/>
      <point x="249" y="-8" type="curve" smooth="yes"/>
      <point x="315" y="-8"/>
      <point x="367" y="21"/>
      <point x="404" y="79" type="curve"/>
      <point x="404" y="0" type="line"/>
      <point x="422" y="0" type="line"/>
      <point x="352" y="-50"/>
      <point x="323" y="-91"/>
      <point x="323" y="-140" type="curve" smooth="yes"/>
      <point x="323" y="-195"/>
      <point x="365" y="-231"/>
    </contour>
  </outline>
</glyph>
<glyph name="circumflex" format="2">
  <advance width="600"/>
  <unicode hex="02C6"/>
  <outline>
    <contour>
      <point x="393" y="579" type="line"/>
      <point x="453" y="579" type="line"/>
      <point x="339" y="706" type="line"/>
      <point x="261" y="706" type="line"/>
      <point x="147" y="579" type="line"/>
      <point x="206" y="579" type="line"/>
      <point x="299" y="663" type="line"/>
    </contour>
  </outline>
</glyph>
<glyph name="caron" format="2">
  <advance width="600"/>
  <unicode hex="02C7"/>
  <outline>
    <contour>
      <point x="208" y="710" type="line"/>
      <point x="147" y="710" type="line"/>
      <point x="261" y="583" type="line"/>
      <point x="339" y="583" type="line"/>
      <point x="453" y="710" type="line"/>
      <point x="392" y="710" type="line"/>
      <point x="300" y="627" type="line"/>
    </contour>
  </outline>
</glyph>
<glyph name="dotaccent" format="2">
  <advance width="600"/>
  <unicode hex="02D9"/>
  <outline>
    <contour>
      <point x="300" y="609" type="curve" smooth="yes"/>
      <point x="329" y="609"/>
      <point x="353" y="633"/>
      <point x="353" y="661" type="curve" smooth="yes"/>
      <point x="353" y="689"/>
      <point x="329" y="713"/>
      <point x="300" y="713" type="curve" smooth="yes"/>
      <point x="271" y="713"/>
      <point x="247" y="689"/>
      <point x="247" y="661" type="curve" smooth="yes"/>
      <point x="247" y="633"/>
      <point x="271" y="609"/>
    </contour>
  </outline>
</glyph>
<glyph name="ring" format="2">
  <advance width="600"/>
  <unicode hex="02DA"/>
  <outline>
    <contour>
      <point x="300" y="572" type="curve" smooth="yes"/>
      <point x="362" y="572"/>
      <point x="412" y="622"/>
      <point x="412" y="683" type="curve" smooth="yes"/>
      <point x="412" y="744"/>
      <point x="362" y="794"/>
      <point x="300" y="794" type="curve" smooth="yes"/>
      <point x="238" y="794"/>
      <point x="188" y="744"/>
      <point x="188" y="683" type="curve" smooth="yes"/>
      <point x="188" y="622"/>
      <point x="238" y="572"/>
    </contour>
    <contour>
      <point x="300" y="613" type="curve" smooth="yes"/>
      <point x="261" y="613"/>
      <point x="230" y="644"/>
      <point x="230" y="683" type="curve" smooth="yes"/>
      <point x="230" y="722"/>
      <point x="261" y="753"/>
      <point x="300" y="753" type="curve" smooth="yes"/>
      <point x="339" y="753"/>
      <point x="370" y="722"/>
      <point x="370" y="683" type="curve" smooth="yes"/>
      <point x="370" y="644"/>
      <point x="339" y="613"/>
    </contour>
  </outline>
</glyph>
<glyph name="tilde" format="2">
  <advance width="600"/>
  <unicode hex="02DC"/>
  <outline>
    <contour>
      <point x="180" y="580" type="line"/>
      <point x="192" y="627"/>
      <point x="205" y="644"/>
      <point x="231" y="644" type="curve"/>
      <point x="273" y="644"/>
      <point x="318" y="584"/>
      <point x="375" y="584" type="curve" smooth="yes"/>
      <point x="420" y="584"/>
      <point x="453" y="620"/>
      <point x="471" y="688" type="curve"/>
      <point x="420" y="698" type="line"/>
      <point x="407" y="650"/>
      <point x="396" y="634"/>
      <point x="374" y="634" type="curve"/>
      <point x="333" y="634"/>
      <point x="287" y="694"/>
      <point x="229" y="694" type="curve" smooth="yes"/>
      <point x="181" y="694"/>
      <point x="147" y="658"/>
      <point x="129" y="590" type="curve"/>
    </contour>
  </outline>
</glyph>
<glyph name="endash" format="2">
  <advance width="550"/>
  <unicode hex="2013"/>
  <outline>
    <contour>
      <point x="61" y="250" type="line"/>
      <point x="489" y="250" type="line"/>
      <point x="489" y="313" type="line"/>
      <point x="61" y="313" type="line"/>
    </contour>
  </outline>
</glyph>
<glyph name="uni2015" format="2">
  <advance width="930"/>
  <unicode hex="2015"/>
  <outline>
    <contour>
      <point x="61" y="250" type="line"/>
      <point x="869" y="250" type="line"/>
      <point x="869" y="313" type="line"/>
      <point x="61" y="313" type="line"/>
    </contour>
  </outline>
</glyph>
<glyph name="daggerdbl" format="2">
  <advance width="432"/>
  <unicode hex="2021"/>
  <outline>
    <contour>
      <point x="184" y="0" type="line"/>
      <point x="248" y="0" type="line"/>
      <point x="248" y="200" type="line"/>
      <point x="382" y="200" type="line"/>
      <point x="382" y="257" type="line"/>
      <point x="248" y="257" type="line"/>
      <point x="248" y="443" type="line"/>
      <point x="382" y="443" type="line"/>
      <point x="382" y="500" type="line"/>
      <point x="248" y="500" type="line"/>
      <point x="248" y="700" type="line"/>
      <point x="184" y="700" type="line"/>
      <point x="184" y="500" type="line"/>
      <point x="50" y="500" type="line"/>
      <point x="50" y="443" type="line"/>
      <point x="184" y="443" type="line"/>
      <point x="184" y="257" type="line"/>
      <point x="50" y="257" type="line"/>
      <point x="50" y="200" type="line"/>
      <point x="184" y="200" type="line"/>
    </contour>
  </outline>
</glyph>
<glyph name="uni2074" format="2">
  <advance width="330"/>
  <unicode hex="2074"/>
  <outline>
    <contour>
      <point x="219" y="350" type="line"/>
      <point x="270" y="350" type="line"/>
      <point x="270" y="438" type="line"/>
      <point x="312" y="438" type="line"/>
      <point x="312" y="480" type="line"/>
      <point x="270" y="480" type="line"/>
      <point x="270" y="700" type="line"/>
      <point x="213" y="700" type="line"/>
      <point x="22" y="479" type="line"/>
      <point x="22" y="438" type="line"/>
      <point x="219" y="438" type="line"/>
    </contour>
    <contour>
      <point x="76" y="480" type="line"/>
      <point x="219" y="645" type="line"/>
      <point x="219" y="480" type="line"/>
    </contour>
  </outline>
</glyph>
<glyph name="uni2078" format="2">
  <advance width="327"/>
  <unicode hex="2078"/>
  <outline>
    <contour>
      <point x="164" y="345" type="curve" smooth="yes"/>
      <point x="241" y="345"/>
      <point x="297" y="387"/>
      <point x="297" y="445" type="curve" smooth="yes"/>
      <point x="297" y="486"/>
      <point x="266" y="520"/>
      <point x="220" y="532" type="curve"/>
      <point x="259" y="544"/>
      <point x="285" y="575"/>
      <point x="285" y="612" type="curve" smooth="yes"/>
      <point x="285" y="665"/>
      <point x="232" y="706"/>
      <point x="163" y="706" type="curve" smooth="yes"/>
      <point x="95" y="706"/>
      <point x="43" y="666"/>
      <point x="43" y="612" type="curve" smooth="yes"/>
      <point x="43" y="575"/>
      <point x="68" y="544"/>
      <point x="106" y="532" type="curve"/>
      <point x="61" y="520"/>
      <point x="30" y="486"/>
      <point x="30" y="445" type="curve" smooth="yes"/>
      <point x="30" y="387"/>
      <point x="86" y="345"/>
    </contour>
    <contour>
      <point x="164" y="552" type="curve" smooth="yes"/>
      <point x="123" y="552"/>
      <point x="93" y="576"/>
      <point x="93" y="608" type="curve" smooth="yes"/>
      <point x="93" y="640"/>
      <point x="123" y="665"/>
      <point x="164" y="665" type="curve" smooth="yes"/>
      <point x="203" y="665"/>
      <point x="234" y="640"/>
      <point x="234" y="608" type="curve" smooth="yes"/>
      <point x="234" y="576"/>
      <point x="203" y="552"/>
    </contour>
    <contour>
      <point x="164" y="387" type="curve" smooth="yes"/>
      <point x="117" y="387"/>
      <point x="81" y="414"/>
      <point x="81" y="449" type="curve" smooth="yes"/>
      <point x="81" y="485"/>
      <point x="116" y="512"/>
      <point x="164" y="512" type="curve" smooth="yes"/>
      <point x="211" y="512"/>
      <point x="246" y="485"/>
      <point x="246" y="449" type="curve" smooth="yes"/>
      <point x="246" y="414"/>
      <point x="211" y="387"/>
    </contour>
  </outline>
</glyph>
<glyph name="uni2079" format="2">
  <advance width="326"/>
  <unicode hex="2079"/>
  <outline>
    <contour>
      <point x="151" y="704" type="curve" smooth="yes"/>
      <point x="78" y="704"/>
      <point x="25" y="655"/>
      <point x="25" y="589" type="curve" smooth="yes"/>
      <point x="25" y="527"/>
      <point x="74" y="484"/>
      <point x="143" y="484" type="curve" smooth="yes"/>
      <point x="184" y="484"/>
      <point x="223" y="502"/>
      <point x="247" y="531" type="curve"/>
      <point x="247" y="444"/>
      <point x="205" y="390"/>
      <point x="134" y="390" type="curve" smooth="yes"/>
      <point x="114" y="390"/>
      <point x="87" y="398"/>
      <point x="63" y="410" type="curve"/>
      <point x="42" y="367" type="line"/>
      <point x="70" y="352"/>
      <point x="98" y="345"/>
      <point x="129" y="345" type="curve" smooth="yes"/>
      <point x="231" y="345"/>
      <point x="298" y="420"/>
      <point x="298" y="534" type="curve" smooth="yes"/>
      <point x="298" y="635"/>
      <point x="238" y="704"/>
    </contour>
    <contour>
      <point x="157" y="523" type="curve" smooth="yes"/>
      <point x="109" y="523"/>
      <point x="76" y="551"/>
      <point x="76" y="590" type="curve" smooth="yes"/>
      <point x="76" y="630"/>
      <point x="107" y="660"/>
      <point x="150" y="660" type="curve" smooth="yes"/>
      <point x="199" y="660"/>
      <point x="235" y="623"/>
      <point x="245" y="566" type="curve"/>
      <point x="222" y="538"/>
      <point x="190" y="523"/>
    </contour>
  </outline>
</glyph>
<glyph name="uni2080" format="2">
  <advance width="350"/>
  <unicode hex="2080"/>
  <outline>
    <contour>
      <point x="175" y="-5" type="curve" smooth="yes"/>
      <point x="262" y="-5"/>
      <point x="321" y="68"/>
      <point x="321" y="175" type="curve" smooth="yes"/>
      <point x="321" y="282"/>
      <point x="262" y="355"/>
      <point x="175" y="355" type="curve" smooth="yes"/>
      <point x="88" y="355"/>
      <point x="29" y="282"/>
      <point x="29" y="175" type="curve" smooth="yes"/>
      <point x="29" y="68"/>
      <point x="88" y="-5"/>
    </contour>
    <contour>
      <point x="175" y="40" type="curve" smooth="yes"/>
      <point x="117" y="40"/>
      <point x="79" y="92"/>
      <point x="79" y="175" type="curve" smooth="yes"/>
      <point x="79" y="258"/>
      <point x="117" y="310"/>
      <point x="175" y="310" type="curve" smooth="yes"/>
      <point x="233" y="310"/>
      <point x="271" y="258"/>
      <point x="271" y="175" type="curve" smooth="yes"/>
      <point x="271" y="92"/>
      <point x="233" y="40"/>
    </contour>
  </outline>
</glyph>
<glyph name="uni2082" format="2">
  <advance width="292"/>
  <unicode hex="2082"/>
  <outline>
    <contour>
      <point x="27" y="0" type="line"/>
      <point x="269" y="0" type="line"/>
      <point x="269" y="44" type="line"/>
      <point x="94" y="44" type="line"/>
      <point x="201" y="144" type="line" smooth="yes"/>
      <point x="248" y="187"/>
      <point x="264" y="214"/>
      <point x="264" y="254" type="curve" smooth="yes"/>
      <point x="264" y="312"/>
      <point x="215" y="355"/>
      <point x="144" y="355" type="curve" smooth="yes"/>
      <point x="99" y="355"/>
      <point x="58" y="336"/>
      <point x="19" y="302" type="curve"/>
      <point x="48" y="267" type="line"/>
      <point x="85" y="300"/>
      <point x="111" y="310"/>
      <point x="143" y="310" type="curve" smooth="yes"/>
      <point x="184" y="310"/>
      <point x="214" y="284"/>
      <point x="214" y="250" type="curve" smooth="yes"/>
      <point x="214" y="222"/>
      <point x="202" y="201"/>
      <point x="167" y="168" type="curve" smooth="yes"/>
      <point x="27" y="38" type="line"/>
    </contour>
  </outline>
</glyph>
<glyph name="uni2085" format="2">
  <advance width="309"/>
  <unicode hex="2085"/>
  <outline>
    <contour>
      <point x="147" y="-5" type="curve"/>
      <point x="228" y="-5"/>
      <point x="282" y="41"/>
      <point x="282" y="110" type="curve" smooth="yes"/>
      <point x="282" y="173"/>
      <point x="232" y="216"/>
      <point x="154" y="217" type="curve" smooth="yes"/>
      <point x="130" y="217"/>
      <point x="107" y="212"/>
      <point x="86" y="203" type="curve"/>
      <point x="90" y="308" type="line"/>
      <point x="263" y="308" type="line"/>
      <point x="263" y="350" type="line"/>
      <point x="48" y="350" type="line"/>
      <point x="40" y="173" type="line"/>
      <point x="72" y="163" type="line"/>
      <point x="99" y="173"/>
      <point x="122" y="178"/>
      <point x="148" y="178" type="curve" smooth="yes"/>
      <point x="199" y="178"/>
      <point x="230" y="150"/>
      <point x="230" y="109" type="curve" smooth="yes"/>
      <point x="230" y="67"/>
      <point x="196" y="37"/>
      <point x="146" y="37" type="curve"/>
      <point x="115" y="37"/>
      <point x="86" y="48"/>
      <point x="48" y="72" type="curve"/>
      <point x="23" y="32" type="line"/>
      <point x="63" y="6"/>
      <point x="100" y="-5"/>
    </contour>
  </outline>
</glyph>
<glyph name="uni2086" format="2">
  <advance width="327"/>
  <unicode hex="2086"/>
  <outline>
    <contour>
      <point x="175" y="-5" type="curve" smooth="yes"/>
      <point x="248" y="-5"/>
      <point x="301" y="44"/>
      <point x="301" y="110" type="curve" smooth="yes"/>
      <point x="301" y="172"/>
      <point x="252" y="215"/>
      <point x="183" y="215" type="curve" smooth="yes"/>
      <point x="142" y="215"/>
      <point x="103" y="197"/>
      <point x="79" y="168" type="curve"/>
      <point x="79" y="255"/>
      <point x="121" y="309"/>
      <point x="192" y="309" type="curve" smooth="yes"/>
      <point x="212" y="309"/>
      <point x="239" y="301"/>
      <point x="263" y="289" type="curve"/>
      <point x="284" y="332" type="line"/>
      <point x="256" y="347"/>
      <point x="228" y="354"/>
      <point x="197" y="354" type="curve" smooth="yes"/>
      <point x="95" y="354"/>
      <point x="28" y="279"/>
      <point x="28" y="165" type="curve" smooth="yes"/>
      <point x="28" y="64"/>
      <point x="88" y="-5"/>
    </contour>
    <contour>
      <point x="169" y="176" type="curve" smooth="yes"/>
      <point x="217" y="176"/>
      <point x="250" y="148"/>
      <point x="250" y="109" type="curve" smooth="yes"/>
      <point x="250" y="69"/>
      <point x="219" y="39"/>
      <point x="176" y="39" type="curve" smooth="yes"/>
      <point x="127" y="39"/>
      <point x="91" y="76"/>
      <point x="81" y="133" type="curve"/>
      <point x="104" y="161"/>
      <point x="136" y="176"/>
    </contour>
  </outline>
</glyph>
<glyph name="a.school" format="2">
  <advance width="582"/>
  <anchor x="282" y="488" name="top"/>
  <anchor x="507" y="0" name="bottom"/>
  <outline>
    <contour>
      <point x="278" y="-7" type="curve" smooth="yes"/>
      <point x="342" y="-7"/>
      <point x="397" y="18"/>
      <point x="434" y="65" type="curve"/>
      <point x="434" y="0" type="line"/>
      <point x="507" y="0" type="line"/>
      <point x="507" y="488" type="line"/>
      <point x="434" y="488" type="line"/>
      <point x="434" y="426" type="line"/>
      <point x="395" y="470"/>
      <point x="342" y="494"/>
      <point x="282" y="494" type="curve" smooth="yes"/>
      <point x="153" y="494"/>
      <point x="53" y="384"/>
      <point x="53" y="243" type="curve" smooth="yes"/>
      <point x="53" y="103"/>
      <point x="151" y="-7"/>
    </contour>
    <contour>
      <point x="296" y="57" type="curve" smooth="yes"/>
      <point x="198" y="57"/>
      <point x="125" y="137"/>
      <point x="125" y="244" type="curve" smooth="yes"/>
      <point x="125" y="351"/>
      <point x="198" y="430"/>
      <point x="296" y="430" type="curve" smooth="yes"/>
      <point x="351" y="430"/>
      <point x="402" y="405"/>
      <point x="434" y="364" type="curve"/>
      <point x="434" y="122" type="line"/>
      <point x="403" y="80"/>
      <point x="353" y="57"/>
    </contour>
  </outline>
</glyph>
<glyph name="aogonek.school" format="2">
  <advance width="582"/>
  <outline>
    <contour>
      <point x="459" y="-231" type="curve" smooth="yes"/>
      <point x="486" y="-231"/>
      <point x="513" y="-224"/>
      <point x="532" y="-212" type="curve"/>
      <point x="518" y="-173" type="line"/>
      <point x="506" y="-181"/>
      <point x="487" y="-185"/>
      <point x="470" y="-185" type="curve" smooth="yes"/>
      <point x="428" y="-185"/>
      <point x="403" y="-164"/>
      <point x="403" y="-128" type="curve" smooth="yes"/>
      <point x="403" y="-87"/>
      <point x="435" y="-47"/>
      <point x="507" y="0" type="curve"/>
      <point x="507" y="488" type="line"/>
      <point x="434" y="488" type="line"/>
      <point x="434" y="426" type="line"/>
      <point x="395" y="470"/>
      <point x="342" y="494"/>
      <point x="282" y="494" type="curve" smooth="yes"/>
      <point x="153" y="494"/>
      <point x="53" y="384"/>
      <point x="53" y="243" type="curve" smooth="yes"/>
      <point x="53" y="103"/>
      <point x="151" y="-7"/>
      <point x="278" y="-7" type="curve" smooth="yes"/>
      <point x="342" y="-7"/>
      <point x="397" y="18"/>
      <point x="434" y="65" type="curve"/>
      <point x="434" y="0" type="line"/>
      <point x="452" y="0" type="line"/>
      <point x="382" y="-50"/>
      <point x="353" y="-91"/>
      <point x="353" y="-140" type="curve" smooth="yes"/>
      <point x="353" y="-195"/>
      <point x="395" y="-231"/>
    </contour>
    <contour>
      <point x="125" y="244" type="curve" smooth="yes"/>
      <point x="125" y="351"/>
      <point x="198" y="430"/>
      <point x="296" y="430" type="curve" smooth="yes"/>
      <point x="351" y="430"/>
      <point x="402" y="405"/>
      <point x="434" y="364" type="curve"/>
      <point x="434" y="122" type="line"/>
      <point x="403" y="80"/>
      <point x="353" y="57"/>
      <point x="296" y="57" type="curve" smooth="yes"/>
      <point x="198" y="57"/>
      <point x="125" y="137"/>
    </contour>
  </outline>
</glyph>
<glyph name="g.alt" format="2">
  <advance width="537"/>
  <anchor x="266" y="488" name="top"/>
  <outline>
    <contour>
      <point x="261" y="-219" type="curve" smooth="yes"/>
      <point x="421" y="-219"/>
      <point x="521" y="-160"/>
      <point x="521" y="-68" type="curve" smooth="yes"/>
      <point x="521" y="-7"/>
      <point x="475" y="29"/>
      <point x="393" y="33" type="curve" smooth="yes"/>
      <point x="207" y="43" type="line" smooth="yes"/>
      <point x="168" y="45"/>
      <point x="148" y="58"/>
      <point x="148" y="83" type="curve" smooth="yes"/>
      <point x="148" y="110"/>
      <point x="171" y="132"/>
      <point x="205" y="140" type="curve"/>
      <point x="225" y="135"/>
      <point x="245" y="132"/>
      <point x="266" y="132" type="curve" smooth="yes"/>
      <point x="377" y="132"/>
      <point x="465" y="213"/>
      <point x="465" y="314" type="curve" smooth="yes"/>
      <point x="465" y="354"/>
      <point x="451" y="390"/>
      <point x="428" y="420" type="curve"/>
      <point x="440" y="445"/>
      <point x="463" y="459"/>
      <point x="492" y="459" type="curve" smooth="yes"/>
      <point x="511" y="459"/>
      <point x="525" y="458"/>
      <point x="537" y="454" type="curve"/>
      <point x="537" y="525" type="line"/>
      <point x="530" y="526"/>
      <point x="522" y="527"/>
      <point x="512" y="527" type="curve" smooth="yes"/>
      <point x="459" y="527"/>
      <point x="421" y="493"/>
      <point x="411" y="439" type="curve"/>
      <point x="375" y="474"/>
      <point x="324" y="496"/>
      <point x="266" y="496" type="curve" smooth="yes"/>
      <point x="155" y="496"/>
      <point x="67" y="415"/>
      <point x="67" y="314" type="curve" smooth="yes"/>
      <point x="67" y="244"/>
      <point x="109" y="184"/>
      <point x="171" y="154" type="curve"/>
      <point x="118" y="139"/>
      <point x="82" y="105"/>
      <point x="82" y="66" type="curve" smooth="yes"/>
      <point x="82" y="29"/>
      <point x="104" y="1"/>
      <point x="145" y="-13" type="curve"/>
      <point x="76" y="-34"/>
      <point x="40" y="-63"/>
      <point x="40" y="-101" type="curve" smooth="yes"/>
      <point x="40" y="-176"/>
      <point x="121" y="-219"/>
    </contour>
    <contour>
      <point x="266" y="188" type="curve" smooth="yes"/>
      <point x="194" y="188"/>
      <point x="138" y="243"/>
      <point x="138" y="314" type="curve" smooth="yes"/>
      <point x="138" y="385"/>
      <point x="194" y="440"/>
      <point x="266" y="440" type="curve" smooth="yes"/>
      <point x="338" y="440"/>
      <point x="394" y="385"/>
      <point x="394" y="314" type="curve" smooth="yes"/>
      <point x="394" y="243"/>
      <point x="338" y="188"/>
    </contour>
    <contour>
      <point x="255" y="-166" type="curve" smooth="yes"/>
      <point x="164" y="-166"/>
      <point x="110" y="-137"/>
      <point x="110" y="-89" type="curve" smooth="yes"/>
      <point x="110" y="-60"/>
      <point x="137" y="-36"/>
      <point x="182" y="-22" type="curve"/>
      <point x="190" y="-23"/>
      <point x="198" y="-24"/>
      <point x="206" y="-24" type="curve" smooth="yes"/>
      <point x="385" y="-33" type="line" smooth="yes"/>
      <point x="427" y="-36"/>
      <point x="448" y="-50"/>
      <point x="448" y="-79" type="curve" smooth="yes"/>
      <point x="448" y="-132"/>
      <point x="373" y="-166"/>
    </contour>
  </outline>
</glyph>
<glyph name="gravecomb" format="2">
  <anchor x="300" y="488" name="_top"/>
  <outline>
    <contour>
      <point x="294" y="584" type="line"/>
      <point x="365" y="584" type="line"/>
      <point x="253" y="706" type="line"/>
      <point x="150" y="706" type="line"/>
    </contour>
  </outline>
</glyph>
<glyph name="one.tab" format="2">
  <advance width="600"/>
  <outline>
    <contour>
      <point x="84" y="0" type="line"/>
      <point x="535" y="0" type="line"/>
      <point x="535" y="63" type="line"/>
      <point x="333" y="63" type="line"/>
      <point x="333" y="700" type="line"/>
      <point x="288" y="700" type="line"/>
      <point x="84" y="610" type="line"/>
      <point x="84" y="544" type="line"/>
      <point x="261" y="622" type="line"/>
      <point x="261" y="63" type="line"/>
      <point x="84" y="63" type="line"/>
    </contour>
  </outline>
</glyph>
<glyph name="reversequotedblleft" format="2">
  <advance width="413"/>
  <outline>
    <contour>
      <point x="131" y="519" type="line"/>
      <point x="187" y="519" type="line"/>
      <point x="132" y="750" type="line"/>
      <point x="54" y="750" type="line"/>
    </contour>
    <contour>
      <point x="293" y="519" type="line"/>
      <point x="350" y="519" type="line"/>
      <point x="295" y="750" type="line"/>
      <point x="216" y="750" type="line"/>
    </contour>
  </outline>
</glyph>
<glyph name="uni0306" format="2">
  <anchor x="300" y="488" name="_top"/>
  <outline>
    <contour>
      <point x="301" y="579" type="curve" smooth="yes"/>
      <point x="381" y="579"/>
      <point x="441" y="626"/>
      <point x="458" y="705" type="curve"/>
      <point x="408" y="717" type="line"/>
      <point x="393" y="658"/>
      <point x="356" y="625"/>
      <point x="301" y="625" type="curve" smooth="yes"/>
      <point x="244" y="625"/>
      <point x="208" y="657"/>
      <point x="193" y="717" type="curve"/>
      <point x="142" y="705" type="line"/>
      <point x="161" y="626"/>
      <point x="219" y="579"/>
    </contour>
  </outline>
</glyph>
<glyph name="uni030B" format="2">
  <anchor x="300" y="488" name="_top"/>
  <outline>
    <contour>
      <point x="165" y="582" type="line"/>
      <point x="234" y="582" type="line"/>
      <point x="378" y="706" type="line"/>
      <point x="294" y="706" type="line"/>
    </contour>
    <contour>
      <point x="338" y="582" type="line"/>
      <point x="405" y="582" type="line"/>
      <point x="552" y="706" type="line"/>
      <point x="467" y="706" type="line"/>
    </contour>
  </outline>
</glyph>
<glyph name="uni030C" format="2">
  <anchor x="300" y="488" name="_top"/>
  <outline>
    <contour>
      <point x="208" y="710" type="line"/>
      <point x="147" y="710" type="line"/>
      <point x="261" y="583" type="line"/>
      <point x="339" y="583" type="line"/>
      <point x="453" y="710" type="line"/>
      <point x="392" y="710" type="line"/>
      <point x="300" y="627" type="line"/>
    </contour>
  </outline>
</glyph>
<glyph name="uni0326" format="2">
  <anchor x="300" y="0" name="_bottom"/>
  <outline>
    <contour>
      <point x="219" y="-274" type="line"/>
      <point x="272" y="-274" type="line"/>
      <point x="341" y="-87" type="line"/>
      <point x="268" y="-87" type="line"/>
    </contour>
  </outline>
</glyph>
